<svg id="Capa_1" data-name="Capa 1" xmlns="http://www.w3.org/2000/svg" viewBox="0 0 1080 1080"><defs><style>.cls-1{fill:#be1622;}.cls-2{fill:#fff;}</style></defs><rect class="cls-1" width="1080" height="1080" rx="181.52"/><path class="cls-2" d="M227.58,282.92a125.28,125.28,0,0,1,44.51,7.85,118,118,0,0,1,36.34,21.41,101.67,101.67,0,0,1,24.49,31.75,86.68,86.68,0,0,1,9,38.89v309a86.65,86.65,0,0,1-9,38.89,101.59,101.59,0,0,1-24.49,31.76,117.76,117.76,0,0,1-36.34,21.41,125.06,125.06,0,0,1-44.51,7.85H21.79q5.7-4.29,10.62-14.28,4.06-8.57,7.35-23.55t4.9-40V360.7q-1.65-25-4.9-40t-7.35-23.55q-4.9-10-10.62-14.27Zm15.52,99.9a12.34,12.34,0,0,0-4.5-9.63,16.18,16.18,0,0,0-11-3.92H143.47V705.38h84.11a16.14,16.14,0,0,0,11-3.93,12.31,12.31,0,0,0,4.5-9.63Z" transform="translate(0 -3.33)"/><path class="cls-2" d="M559.13,600.48q-36.75,29.26-58,53.16t-21.24,56.73H583.63q28.57-.69,46.54-3.92t27.77-6.78q11.43-3.57,16.33-8.56V791.73h-316q6.52-4.29,11.43-15.7,4.08-10,7.76-27.12t3.67-45.67v7.13q0-57.07,38.38-105.61a260.17,260.17,0,0,1,34.3-36.4Q472.56,552,492.16,537q19.6-15.68,34.71-27.83A210,210,0,0,0,553,484.51a95.26,95.26,0,0,0,16.74-26q5.71-13.55,5.72-32.83V377.83a12.38,12.38,0,0,0-4.49-9.64,16.27,16.27,0,0,0-11-3.92H495.43a16.19,16.19,0,0,0-11,3.92,12.33,12.33,0,0,0-4.5,9.64v3.57q.81,25,4.09,40t7.35,23.55q4.06,10,10.61,14.27H381.1V377.83a86.55,86.55,0,0,1,9-38.89,101.3,101.3,0,0,1,24.49-31.76,118,118,0,0,1,36.34-21.41,125.2,125.2,0,0,1,44.51-7.85h64.51a125.2,125.2,0,0,1,44.51,7.85,118.16,118.16,0,0,1,36.34,21.41,101.77,101.77,0,0,1,24.5,31.76,86.81,86.81,0,0,1,9,38.89v47.81q0,31.41-9.8,54.59t-30.21,48.89a283.61,283.61,0,0,1-35.93,37.82Q578.72,584.06,559.13,600.48Z" transform="translate(0 -3.33)"/><path class="cls-2" d="M1041.75,720.36q5.7,22.86,11.43,36.76a150,150,0,0,0,10.62,21.76,65.25,65.25,0,0,0,10.62,12.85H931.51A53.68,53.68,0,0,0,938,778.88a104.9,104.9,0,0,0,3.67-20.69q1.23-12.86-1.22-35l-4.08-21.41h-107l-4.09,21.41q-2.45,22.13-1.63,35T827,778.88q3.25,8.57,7.35,12.85H690.6a66,66,0,0,0,10.62-12.85,151.11,151.11,0,0,0,10.61-21.76,362.9,362.9,0,0,0,12.25-36.76l80-375.36q2.46-20,1.64-32.11t-3.27-19.27q-3.27-7.85-6.53-11.42H969.07q-4.1,2.87-6.53,10.71-2.46,6.42-3.27,17.48t.82,28.9Zm-119.23-99.9-40-225.5-39.2,225.5Z" transform="translate(0 -3.33)"/></svg>