<svg id="Capa_1" data-name="Capa 1" xmlns="http://www.w3.org/2000/svg" viewBox="0 0 1080 1080"><defs><style>.cls-1{fill:#be1622;}.cls-2{fill:#fff;}</style></defs><rect class="cls-1" width="1080" height="1080" rx="181.52"/><path class="cls-2" d="M241.35,187.12A87.85,87.85,0,0,1,283.94,198a113.61,113.61,0,0,1,34.78,29.55,146.19,146.19,0,0,1,23.45,43.84A164.94,164.94,0,0,1,350.76,325v426.5a165,165,0,0,1-8.59,53.69A146.13,146.13,0,0,1,318.72,849a113.06,113.06,0,0,1-34.78,29.55,87.75,87.75,0,0,1-42.59,10.84H44.4q5.46-5.91,10.16-19.7,3.9-11.82,7-32.51t4.69-55.16V294.48Q64.71,260,61.59,239.32t-7-32.5Q49.86,193,44.4,187.12ZM256.2,325a20.79,20.79,0,0,0-4.3-13.3c-2.87-3.6-6.39-5.42-10.55-5.42h-80.5V770.24h80.5q6.24,0,10.55-5.42a20.71,20.71,0,0,0,4.3-13.3Z" transform="translate(0 -3.33)"/><path class="cls-2" d="M558.65,625.44q-35.16,40.41-55.49,73.39t-20.32,78.31H582.1q27.35-1,44.55-5.42t26.57-9.36q10.93-4.92,15.63-11.82V889.43H366.39q6.25-5.91,10.94-21.67,3.92-13.78,7.43-37.43t3.52-63v9.85q0-78.79,36.73-145.78a339,339,0,0,1,32.82-50.24q18-22.65,36.74-43.34,18.75-21.66,33.21-38.42a257.23,257.23,0,0,0,25-34,148,148,0,0,0,16-35.95q5.46-18.71,5.47-45.31v-66A20.81,20.81,0,0,0,570,304.83q-4.31-5.41-10.56-5.42H497.69q-6.26,0-10.55,5.42a20.7,20.7,0,0,0-4.3,13.29v4.93q.78,34.49,3.91,55.16t7,32.5c2.61,9.21,6,15.76,10.17,19.7H388.28V318.12a164.45,164.45,0,0,1,8.59-53.68,145.69,145.69,0,0,1,23.45-43.83,113.22,113.22,0,0,1,34.78-29.55,87.8,87.8,0,0,1,42.59-10.84h61.74A87.9,87.9,0,0,1,602,191.06a113.45,113.45,0,0,1,34.78,29.55,145.89,145.89,0,0,1,23.44,43.83,164.72,164.72,0,0,1,8.6,53.68v66q0,43.35-9.38,75.35t-28.91,67.47a368.15,368.15,0,0,1-34.39,52.21Q577.41,602.79,558.65,625.44Z" transform="translate(0 -3.33)"/><path class="cls-2" d="M1020.55,790.93q5.46,31.53,10.94,50.72t10.16,30.05q5.46,11.82,10.16,17.73H915q3.11-5.91,6.25-17.73a204.1,204.1,0,0,0,3.52-28.57q1.17-17.73-1.18-48.26l-3.9-29.55H817.34l-3.9,29.55q-2.36,30.54-1.57,48.26T815,871.7q3.12,11.82,7,17.73H684.48q4.69-5.91,10.16-17.73,4.7-10.83,10.16-30.05t11.72-50.72l76.6-518.12q2.34-27.56,1.56-44.32t-3.13-26.6c-2.09-7.22-4.17-12.46-6.25-15.76H951q-3.91,3.94-6.25,14.78-2.36,8.86-3.13,24.13a361.61,361.61,0,0,0,.78,39.89ZM906.44,653,868.15,341.76,830.63,653Z" transform="translate(0 -3.33)"/></svg>