<svg id="Capa_1" data-name="Capa 1" xmlns="http://www.w3.org/2000/svg" viewBox="0 0 1080 940.36"><defs><style>.cls-1{fill:#be1622;}.cls-2{fill:#fff;}</style></defs><rect class="cls-1" width="1080" height="940.36" rx="181.52"/><path class="cls-2" d="M241.35,298.27a121.89,121.89,0,0,1,42.59,7.38,113.41,113.41,0,0,1,34.78,20.1,95.85,95.85,0,0,1,23.45,29.82,80.29,80.29,0,0,1,8.59,36.52V682.25a80.26,80.26,0,0,1-8.59,36.52,95.73,95.73,0,0,1-23.45,29.82,113,113,0,0,1-34.78,20.1,121.66,121.66,0,0,1-42.59,7.37H44.4q5.46-4,10.16-13.4,3.9-8,7-22.11T66.28,703V371.32q-1.57-23.46-4.69-37.53t-7-22.11q-4.7-9.37-10.16-13.41Zm14.85,93.82a11.51,11.51,0,0,0-4.3-9,15.7,15.7,0,0,0-10.55-3.68h-80.5V695h80.5a15.61,15.61,0,0,0,10.55-3.69,11.46,11.46,0,0,0,4.3-9Z" transform="translate(0 -73.15)"/><path class="cls-2" d="M558.65,596.47Q523.49,624,503.16,646.4t-20.32,53.27H582.1q27.35-.66,44.55-3.68t26.57-6.37q10.93-3.35,15.63-8v94.48H366.39q6.25-4,10.94-14.74,3.92-9.37,7.43-25.46T388.28,693v6.7q0-53.59,36.73-99.17a245.23,245.23,0,0,1,32.82-34.18q18-15.41,36.74-29.49,18.75-14.73,33.21-26.13a199.32,199.32,0,0,0,25-23.12,89.33,89.33,0,0,0,16-24.46q5.46-12.72,5.47-30.82V387.4a11.53,11.53,0,0,0-4.29-9,15.71,15.71,0,0,0-10.56-3.68H497.69a15.66,15.66,0,0,0-10.55,3.68,11.48,11.48,0,0,0-4.3,9v3.35q.78,23.46,3.91,37.53t7,22.11q3.92,9.39,10.17,13.4H388.28V387.4a80,80,0,0,1,8.59-36.52,95.56,95.56,0,0,1,23.45-29.82A113.29,113.29,0,0,1,455.1,301a121.59,121.59,0,0,1,42.59-7.38h61.74A121.72,121.72,0,0,1,602,301a113.53,113.53,0,0,1,34.78,20.1,95.67,95.67,0,0,1,23.44,29.82,80.17,80.17,0,0,1,8.6,36.52v44.9q0,29.49-9.38,51.26t-28.91,45.9A267.52,267.52,0,0,1,596.17,565Q577.41,581.06,558.65,596.47Z" transform="translate(0 -73.15)"/><path class="cls-2" d="M1020.55,709.05q5.46,21.47,10.94,34.51A138.39,138.39,0,0,0,1041.65,764a61.48,61.48,0,0,0,10.16,12.06H915A50,50,0,0,0,921.29,764a97.09,97.09,0,0,0,3.52-19.43q1.17-12.06-1.18-32.84l-3.9-20.1H817.34l-3.9,20.1q-2.36,20.79-1.57,32.84T815,764q3.12,8,7,12.06H684.48A61.82,61.82,0,0,0,694.64,764a139.39,139.39,0,0,0,10.16-20.44,336.79,336.79,0,0,0,11.72-34.51l76.6-352.48q2.34-18.75,1.56-30.15c-.53-7.59-1.56-13.62-3.13-18.09q-3.13-7.36-6.25-10.73H951q-3.91,2.68-6.25,10.06-2.36,6-3.13,16.41t.78,27.14ZM906.44,615.24,868.15,403.48,830.63,615.24Z" transform="translate(0 -73.15)"/></svg>