<svg id="Capa_1" data-name="Capa 1" xmlns="http://www.w3.org/2000/svg" viewBox="0 0 1055.98 679.97"><defs><style>.cls-1{fill:#be1622;}</style></defs><path class="cls-1" d="M104.5,147a39.08,39.08,0,0,1,19.4,5.09A52.1,52.1,0,0,1,139.75,166a69.54,69.54,0,0,1,10.68,20.61,79.71,79.71,0,0,1,3.91,25.24V412.37a79.67,79.67,0,0,1-3.91,25.24,69.54,69.54,0,0,1-10.68,20.61,52.1,52.1,0,0,1-15.85,13.9,39,39,0,0,1-19.4,5.09H14.78q2.49-2.77,4.63-9.26a100.66,100.66,0,0,0,3.2-15.28q1.42-9.74,2.14-25.94V197.46q-.72-16.2-2.14-25.94a100.66,100.66,0,0,0-3.2-15.28q-2.13-6.48-4.63-9.26Zm6.76,64.84a10,10,0,0,0-2-6.25A5.88,5.88,0,0,0,104.5,203H67.83V421.17H104.5a5.88,5.88,0,0,0,4.81-2.55,9.94,9.94,0,0,0,2-6.25Z" transform="translate(-14.78 -143.73)"/><path class="cls-1" d="M278.6,199.78v12.5c-1.43-2.15-4-4.17-7.84-6a75.91,75.91,0,0,0-13.53-4.4q-8.54-2.09-22.78-2.08H217.36v75.49h49.49l-8.55,63.46c-1.19-1.86-3.32-3.55-6.41-5.1q-3.91-2.31-11.57-3.7a151,151,0,0,0-20.47-1.86h-2.49v96.34h22.43c8.3-.3,15-1.16,19.94-2.54a58.5,58.5,0,0,0,11.75-4.4,16.72,16.72,0,0,0,7.12-5.56v65.3H165a27.85,27.85,0,0,0,3.92-8.33,86.22,86.22,0,0,0,3.2-13.67,210.52,210.52,0,0,0,2.14-22.92V191.9a219.9,219.9,0,0,0-2.14-23.15,86,86,0,0,0-3.2-13.9,27.92,27.92,0,0,0-3.92-8.34L278.6,147Z" transform="translate(-14.78 -143.73)"/><path class="cls-1" d="M371.52,147a39.08,39.08,0,0,1,19.4,5.09A52.06,52.06,0,0,1,406.76,166a69.08,69.08,0,0,1,10.68,20.61,79.72,79.72,0,0,1,3.92,25.24V291a79.67,79.67,0,0,1-3.92,25.24,69.08,69.08,0,0,1-10.68,20.61,51.93,51.93,0,0,1-15.84,13.9,39,39,0,0,1-19.4,5.09H342.68v69.48a237.19,237.19,0,0,0,1.78,26.86,98.09,98.09,0,0,0,3.2,15.75q1.79,6.49,4.63,9.26H289.63q2.49-2.77,4.63-9.26a100.27,100.27,0,0,0,3.2-15.52q1.43-9.94,2.14-26.63V197.92q-.72-16.2-2.14-26.16a100.53,100.53,0,0,0-3.2-15.52q-2.14-6.48-4.63-9.26Zm6.76,64.84a10,10,0,0,0-2-6.25,5.88,5.88,0,0,0-4.8-2.55H342.68v96.8h28.84a5.88,5.88,0,0,0,4.8-2.55,9.94,9.94,0,0,0,2-6.25Z" transform="translate(-14.78 -143.73)"/><path class="cls-1" d="M515.35,143.73a39,39,0,0,1,19.4,5.1,52.16,52.16,0,0,1,15.84,13.89,69.57,69.57,0,0,1,10.69,20.61,80.06,80.06,0,0,1,3.91,25.25v207a82.2,82.2,0,0,1-3.91,25.48,68.86,68.86,0,0,1-10.69,20.84,51.9,51.9,0,0,1-15.84,13.89,39,39,0,0,1-19.4,5.1H485.44a39,39,0,0,1-19.4-5.1,51.78,51.78,0,0,1-15.84-13.89,68.41,68.41,0,0,1-10.69-20.84,81.9,81.9,0,0,1-3.91-25.48v-207a79.78,79.78,0,0,1,3.91-25.25,69.11,69.11,0,0,1,10.69-20.61A52,52,0,0,1,466,148.83a39,39,0,0,1,19.4-5.1Zm6.76,64.85a10,10,0,0,0-2-6.26,5.87,5.87,0,0,0-4.8-2.54H485.44a5.87,5.87,0,0,0-4.8,2.54,10,10,0,0,0-2,6.26v207a11,11,0,0,0,2,6.49,5.74,5.74,0,0,0,4.8,2.78h29.91a5.74,5.74,0,0,0,4.8-2.78,11,11,0,0,0,2-6.49Z" transform="translate(-14.78 -143.73)"/><path class="cls-1" d="M632.27,255.82a107.14,107.14,0,0,0,15.6,19.68q9.39,9.51,20.39,19.69a188.31,188.31,0,0,1,20.38,22.23,113.86,113.86,0,0,1,15.6,27.33q6.21,15.28,6.21,35.2v35.66a82.2,82.2,0,0,1-3.91,25.48,68.79,68.79,0,0,1-10.65,20.84,51.13,51.13,0,0,1-16,13.89,39.77,39.77,0,0,1-19.53,5.1H632.69a38.83,38.83,0,0,1-19.35-5.1,51.76,51.76,0,0,1-15.8-13.89,69,69,0,0,1-10.65-20.84,82.19,82.19,0,0,1-3.9-25.48v-52.8h52.55a20.07,20.07,0,0,0-4.56,8.34,85.24,85.24,0,0,0-3.16,14.12,190.24,190.24,0,0,0-1.75,23.86v6.48a11,11,0,0,0,2,6.49,5.74,5.74,0,0,0,4.8,2.78H660.6a5.76,5.76,0,0,0,4.81-2.78,11,11,0,0,0,2-6.49V387.36A48.14,48.14,0,0,0,661.14,363a104,104,0,0,0-15.67-20.61Q636,332.71,625.18,323a168.19,168.19,0,0,1-20.3-21.77,116.39,116.39,0,0,1-15.66-26.86Q583,259.53,583,239.61v-31a80.06,80.06,0,0,1,3.9-25.25,69.74,69.74,0,0,1,10.65-20.61,52,52,0,0,1,15.8-13.89,38.83,38.83,0,0,1,19.35-5.1h27.69a39.77,39.77,0,0,1,19.53,5.1,51.39,51.39,0,0,1,16,13.89,69.5,69.5,0,0,1,10.65,20.61,80.06,80.06,0,0,1,3.91,25.25v52.8h-52.9q2.54-2.78,4.73-9.27a98.21,98.21,0,0,0,3.27-15.28,219.52,219.52,0,0,0,1.82-25.94v-2.31a10,10,0,0,0-2-6.26,5.9,5.9,0,0,0-4.81-2.54H632.83a5.87,5.87,0,0,0-4.8,2.54,10,10,0,0,0-2,6.26v25A41.9,41.9,0,0,0,632.27,255.82Z" transform="translate(-14.78 -143.73)"/><path class="cls-1" d="M778.8,156.7a148.85,148.85,0,0,0-3.38,17.6A216.87,216.87,0,0,0,773.81,204V420.24q0,18.54,1.61,29.42A149.56,149.56,0,0,0,778.8,467q2.13,7.43,5,10.19h-62.3a28.11,28.11,0,0,0,3.91-8.33,85.64,85.64,0,0,0,3.21-13.44,201.89,201.89,0,0,0,2.13-22.69V191.44a211.4,211.4,0,0,0-2.13-22.93,85.09,85.09,0,0,0-3.21-13.66,28.19,28.19,0,0,0-3.91-8.34h62.3Q780.93,149.3,778.8,156.7Z" transform="translate(-14.78 -143.73)"/><path class="cls-1" d="M927.61,146.51v65.77c-1.66-2.15-4.39-4.17-8.18-6a76.46,76.46,0,0,0-13.53-4.4q-8.55-2.09-22.79-2.08h-2.49V428.12a187.49,187.49,0,0,0,2,25.47A93.59,93.59,0,0,0,886,468.41q1.77,6,4.27,8.8h-62.3a23.24,23.24,0,0,0,4.27-8.33,86.93,86.93,0,0,0,3.2-13.44,201.49,201.49,0,0,0,2.14-22.69v-233h-2.49q-14.25,0-22.79,2.08a76.19,76.19,0,0,0-13.53,4.4c-3.8,1.85-6.41,3.87-7.83,6V146.51Z" transform="translate(-14.78 -143.73)"/><path class="cls-1" d="M1018,143.73a39,39,0,0,1,19.41,5.1,52.16,52.16,0,0,1,15.84,13.89A69.56,69.56,0,0,1,1064,183.33a79.78,79.78,0,0,1,3.92,25.25v207a81.91,81.91,0,0,1-3.92,25.48,68.84,68.84,0,0,1-10.68,20.84,51.9,51.9,0,0,1-15.84,13.89,39,39,0,0,1-19.41,5.1h-29.9a39,39,0,0,1-19.41-5.1,51.9,51.9,0,0,1-15.84-13.89,68.61,68.61,0,0,1-10.68-20.84,81.61,81.61,0,0,1-3.92-25.48v-207a79.5,79.5,0,0,1,3.92-25.25,69.32,69.32,0,0,1,10.68-20.61,52.16,52.16,0,0,1,15.84-13.89,39,39,0,0,1,19.41-5.1Zm6.77,64.85a10,10,0,0,0-2-6.26,5.9,5.9,0,0,0-4.81-2.54h-29.9a5.87,5.87,0,0,0-4.81,2.54,10,10,0,0,0-2,6.26v207a11,11,0,0,0,2,6.49,5.74,5.74,0,0,0,4.81,2.78H1018a5.76,5.76,0,0,0,4.81-2.78,11,11,0,0,0,2-6.49Z" transform="translate(-14.78 -143.73)"/><path class="cls-1" d="M91.36,820H20.83a29.76,29.76,0,0,0,2.63-8.31,128.88,128.88,0,0,0,2-13.63q.89-8.53,1.32-22.86V535.47q-.45-14.31-1.32-23.09a129.53,129.53,0,0,0-2-13.86,29.76,29.76,0,0,0-2.63-8.31H59.28A30.46,30.46,0,0,0,56.65,499a127.11,127.11,0,0,0-2,14.09q-.89,9-1.32,23.79V767.35H67.41a35.89,35.89,0,0,0,12.31-2.54A29.58,29.58,0,0,0,87,760.42a13,13,0,0,0,4.39-5.54Z" transform="translate(-14.78 -143.73)"/><path class="cls-1" d="M147.18,487.43c4.24,0,8.24,1.7,12,5.09a43.84,43.84,0,0,1,9.78,13.85,90.16,90.16,0,0,1,6.59,20.56,125.16,125.16,0,0,1,2.42,25.17V758.57A128.69,128.69,0,0,1,175.52,784a89.46,89.46,0,0,1-6.59,20.78,43.67,43.67,0,0,1-9.78,13.86c-3.73,3.38-7.73,5.08-12,5.08H128.72q-6.37,0-12-5.08A43.82,43.82,0,0,1,107,804.76,89.46,89.46,0,0,1,100.37,784,128.69,128.69,0,0,1,98,758.57V552.1a125.16,125.16,0,0,1,2.42-25.17A90.16,90.16,0,0,1,107,506.37a44,44,0,0,1,9.78-13.85q5.61-5.08,12-5.09Zm4.17,64.67a14.36,14.36,0,0,0-1.21-6.23c-.8-1.69-1.79-2.55-3-2.55H128.72c-1.18,0-2.17.86-3,2.55a14.36,14.36,0,0,0-1.21,6.23V758.57a16,16,0,0,0,1.21,6.47c.8,1.85,1.79,2.77,3,2.77h18.46c1.17,0,2.16-.92,3-2.77a16,16,0,0,0,1.21-6.47Z" transform="translate(-14.78 -143.73)"/><path class="cls-1" d="M219.34,599.21A115.57,115.57,0,0,0,229,618.85q5.79,9.46,12.58,19.63a182.76,182.76,0,0,1,12.58,22.17,142.12,142.12,0,0,1,9.63,27.25q3.83,15.24,3.83,35.1v35.57A128.7,128.7,0,0,1,265.18,784a90,90,0,0,1-6.57,20.78,43,43,0,0,1-9.86,13.86q-5.7,5.07-12.06,5.08H219.6c-4.23,0-8.22-1.7-11.94-5.08a43.62,43.62,0,0,1-9.75-13.86A89.47,89.47,0,0,1,191.33,784a129.46,129.46,0,0,1-2.41-25.41V705.92h32.44a25.25,25.25,0,0,0-2.82,8.31,133.07,133.07,0,0,0-1.95,14.09q-.85,9-1.08,23.79v6.46a16,16,0,0,0,1.21,6.47c.8,1.85,1.79,2.77,3,2.77h17.14c1.17,0,2.16-.92,3-2.77a16,16,0,0,0,1.21-6.47V730.4a72.32,72.32,0,0,0-3.84-24.25,114,114,0,0,0-9.67-20.56q-5.82-9.71-12.53-19.4a163.59,163.59,0,0,1-12.52-21.71,144.55,144.55,0,0,1-9.67-26.79q-3.86-14.78-3.85-34.64V552.1a125.91,125.91,0,0,1,2.41-25.17,90.17,90.17,0,0,1,6.58-20.56,43.8,43.8,0,0,1,9.75-13.85c3.72-3.39,7.71-5.09,11.94-5.09h17.09q6.36,0,12.06,5.09a43.2,43.2,0,0,1,9.86,13.85,90.68,90.68,0,0,1,6.57,20.56,125.17,125.17,0,0,1,2.41,25.17v52.66H234.94c1.05-1.85,2-4.92,2.92-9.24a151.45,151.45,0,0,0,2-15.24q.9-9.71,1.12-25.87V552.1a14.36,14.36,0,0,0-1.21-6.23c-.8-1.69-1.79-2.55-3-2.55H219.69c-1.18,0-2.17.86-3,2.55a14.36,14.36,0,0,0-1.21,6.23V577A62.37,62.37,0,0,0,219.34,599.21Z" transform="translate(-14.78 -143.73)"/><path class="cls-1" d="M336.77,489q5.84,0,11,5.1A44.37,44.37,0,0,1,356.69,508a96.76,96.76,0,0,1,6,20.63,137.81,137.81,0,0,1,2.21,25.27V754.63a137.73,137.73,0,0,1-2.21,25.27,96.76,96.76,0,0,1-6,20.63,44.25,44.25,0,0,1-8.95,13.91q-5.13,5.1-11,5.1h-50.7a37.74,37.74,0,0,0,2.61-9.28c.67-3.71,1.28-8.8,1.81-15.3s.94-15.13,1.21-26V539.52q-.4-16.21-1.21-26t-1.81-15.3a37.91,37.91,0,0,0-2.61-9.27Zm3.82,64.91a15.87,15.87,0,0,0-1.1-6.26c-.74-1.7-1.65-2.55-2.72-2.55H316.05V763.44h20.72c1.07,0,2-.85,2.72-2.55a15.81,15.81,0,0,0,1.1-6.26Z" transform="translate(-14.78 -143.73)"/><path class="cls-1" d="M420.07,485.75q5.83,0,11,5.1a44.31,44.31,0,0,1,8.95,13.9,96.93,96.93,0,0,1,6,20.63,137.89,137.89,0,0,1,2.21,25.27V757.88a141.66,141.66,0,0,1-2.21,25.5,96.31,96.31,0,0,1-6,20.86,44.08,44.08,0,0,1-8.95,13.9q-5.13,5.1-11,5.1h-16.9q-5.84,0-11-5.1a44.08,44.08,0,0,1-8.95-13.9,96.31,96.31,0,0,1-6-20.86,141.66,141.66,0,0,1-2.21-25.5V550.65a137.89,137.89,0,0,1,2.21-25.27,96.93,96.93,0,0,1,6-20.63,44.31,44.31,0,0,1,8.95-13.9q5.13-5.1,11-5.1Zm3.82,64.9a15.87,15.87,0,0,0-1.1-6.26c-.74-1.69-1.65-2.55-2.72-2.55h-16.9c-1.08,0-2,.86-2.72,2.55a15.7,15.7,0,0,0-1.1,6.26V757.88a17.47,17.47,0,0,0,1.1,6.49c.74,1.85,1.64,2.78,2.72,2.78h16.9c1.07,0,2-.93,2.72-2.78a17.68,17.68,0,0,0,1.1-6.49Z" transform="translate(-14.78 -143.73)"/><path class="cls-1" d="M486.15,597.94a120.83,120.83,0,0,0,8.81,19.7q5.31,9.51,11.53,19.7A190,190,0,0,1,518,659.6,152.56,152.56,0,0,1,526.82,687a158.56,158.56,0,0,1,3.51,35.23v35.7a141.66,141.66,0,0,1-2.21,25.5,96.35,96.35,0,0,1-6,20.86,43,43,0,0,1-9,13.9q-5.21,5.1-11,5.1H486.39q-5.82,0-10.94-5.1a44.06,44.06,0,0,1-8.93-13.9,96.92,96.92,0,0,1-6-20.86,141.67,141.67,0,0,1-2.2-25.5V705H488a27.2,27.2,0,0,0-2.57,8.34q-1,5.11-1.79,14.14t-1,23.88v6.49a17.47,17.47,0,0,0,1.11,6.49c.74,1.85,1.64,2.78,2.72,2.78h15.69c1.07,0,2-.93,2.72-2.78a17.68,17.68,0,0,0,1.1-6.49V729.6a78.82,78.82,0,0,0-3.52-24.34,119.69,119.69,0,0,0-8.85-20.63q-5.34-9.74-11.47-19.47a168.49,168.49,0,0,1-11.47-21.79,154.17,154.17,0,0,1-8.85-26.89q-3.52-14.84-3.52-34.77V550.65a137.91,137.91,0,0,1,2.2-25.27,97.55,97.55,0,0,1,6-20.63,44.29,44.29,0,0,1,8.93-13.9q5.12-5.1,10.94-5.1H502q5.82,0,11,5.1a43.22,43.22,0,0,1,9,13.9,97,97,0,0,1,6,20.63,137.89,137.89,0,0,1,2.21,25.27V603.5h-29.9a37,37,0,0,0,2.68-9.27q1-5.57,1.85-15.3t1-26v-2.32a15.87,15.87,0,0,0-1.1-6.26c-.74-1.69-1.65-2.55-2.72-2.55H486.47c-1.08,0-2,.86-2.72,2.55a15.69,15.69,0,0,0-1.11,6.26v25A68,68,0,0,0,486.15,597.94Z" transform="translate(-14.78 -143.73)"/><path class="cls-1" d="M661.31,773.18q1.41,14.84,2.82,23.87t2.62,14.14a58.28,58.28,0,0,0,2.61,8.35H634.15a69.05,69.05,0,0,0,1.61-8.35q.6-5.1.91-13.44T636.36,775l-1-13.91H609L608,775q-.6,14.37-.4,22.72t.8,13.44a44.86,44.86,0,0,0,1.82,8.35H574.79a58.06,58.06,0,0,0,2.62-8.35q1.2-5.1,2.61-14.14t3-23.87l19.72-243.85q.6-13,.4-20.87t-.8-12.51a48.71,48.71,0,0,0-1.61-7.42h42.66c-.68,1.24-1.21,3.56-1.61,7a100.73,100.73,0,0,0-.81,11.36q-.19,7.2.2,18.78Zm-29.37-64.91-9.86-146.49-9.66,146.49Z" transform="translate(-14.78 -143.73)"/><path class="cls-1" d="M783,497.34q-1,5.1-1.81,13.67T780,534V774.57q.4,14.37,1.21,22.94c.54,5.73,1.14,10.28,1.81,13.68a32,32,0,0,0,2.42,8.35H750.25a32.44,32.44,0,0,0,2.41-8.35q1-5.1,1.81-13.44T755.68,775V632.24L737.57,745.36H717.25L699.14,632.24V774.57q.4,14.37,1.11,22.94A123.06,123.06,0,0,0,702,811.19a31.65,31.65,0,0,0,2.41,8.35h-35a32,32,0,0,0,2.41-8.35q1-5.1,1.81-13.44T674.79,775V533q-.4-13.9-1.21-22.48c-.53-5.72-1.14-10.27-1.81-13.68q-1-5.55-2.41-7.88l30.78-.46V489l27.17,173.85,27.36-174.31,30.79.46A32,32,0,0,0,783,497.34Z" transform="translate(-14.78 -143.73)"/><path class="cls-1" d="M821.87,498.73q-1,6.5-1.91,17.61t-.9,29.67v216.5q0,18.56.9,29.44t1.91,17.39q1.21,7.41,2.82,10.2H789.48a40.67,40.67,0,0,0,2.21-8.35q1-5.1,1.81-13.44T794.71,775V533.5q-.4-14.37-1.21-22.95c-.53-5.72-1.14-10.27-1.81-13.68a40.54,40.54,0,0,0-2.21-8.34h35.21C823.62,490.38,822.68,493.79,821.87,498.73Z" transform="translate(-14.78 -143.73)"/><path class="cls-1" d="M909.4,627.61q-1.62,2.77-2.62,9.27-1,5.57-1.81,16t-1,26.66v78.35a140.73,140.73,0,0,1-2.22,25.5,96.9,96.9,0,0,1-6,20.86,44.09,44.09,0,0,1-9,13.9q-5.13,5.1-11,5.1H858.89q-5.83,0-11-5.1a44.09,44.09,0,0,1-9-13.9,95.77,95.77,0,0,1-6-20.86,140.75,140.75,0,0,1-2.21-25.5V550.65a137,137,0,0,1,2.21-25.27,96.37,96.37,0,0,1,6-20.63,44.33,44.33,0,0,1,9-13.9q5.13-5.1,11-5.1H875.8q5.84,0,11,5.1a44.33,44.33,0,0,1,9,13.9,97.54,97.54,0,0,1,6,20.63A137,137,0,0,1,904,550.65v38H874.19a29.88,29.88,0,0,0,2.21-7.42,119.62,119.62,0,0,0,1.81-12.52q.81-7.87,1.21-20.86A13.68,13.68,0,0,0,878,543.7c-.67-1.23-1.41-1.86-2.21-1.86H858.89c-1.07,0-2,.86-2.71,2.55a15.69,15.69,0,0,0-1.11,6.26V757.88a17.47,17.47,0,0,0,1.11,6.49c.73,1.85,1.64,2.78,2.71,2.78H875.8c1.07,0,2-.93,2.71-2.78a17.47,17.47,0,0,0,1.11-6.49V683.7a21.64,21.64,0,0,0-4.93,3,17.49,17.49,0,0,0-2.92,3A23.59,23.59,0,0,0,870,693V627.61Z" transform="translate(-14.78 -143.73)"/><path class="cls-1" d="M960.5,485.75q5.84,0,11,5.1a44.31,44.31,0,0,1,8.95,13.9,96.93,96.93,0,0,1,6,20.63,137.89,137.89,0,0,1,2.21,25.27V757.88a141.66,141.66,0,0,1-2.21,25.5,96.31,96.31,0,0,1-6,20.86,44.08,44.08,0,0,1-8.95,13.9q-5.13,5.1-11,5.1H943.6q-5.83,0-11-5.1a43.92,43.92,0,0,1-9-13.9,95.77,95.77,0,0,1-6-20.86,140.73,140.73,0,0,1-2.22-25.5V550.65a137,137,0,0,1,2.22-25.27,96.37,96.37,0,0,1,6-20.63,44.15,44.15,0,0,1,9-13.9q5.13-5.1,11-5.1Zm3.83,64.9a15.69,15.69,0,0,0-1.11-6.26c-.74-1.69-1.64-2.55-2.72-2.55H943.6c-1.07,0-2,.86-2.71,2.55a15.69,15.69,0,0,0-1.11,6.26V757.88a17.47,17.47,0,0,0,1.11,6.49c.73,1.85,1.64,2.78,2.71,2.78h16.9c1.08,0,2-.93,2.72-2.78a17.47,17.47,0,0,0,1.11-6.49Z" transform="translate(-14.78 -143.73)"/><path class="cls-1" d="M1026.58,597.94a120.88,120.88,0,0,0,8.82,19.7q5.31,9.51,11.52,19.7a190,190,0,0,1,11.52,22.26,152.55,152.55,0,0,1,8.82,27.35,159.2,159.2,0,0,1,3.5,35.23v35.7a141.67,141.67,0,0,1-2.2,25.5,96.35,96.35,0,0,1-6,20.86,43.16,43.16,0,0,1-9,13.9q-5.22,5.1-11,5.1h-15.65q-5.82,0-10.94-5.1a44,44,0,0,1-8.92-13.9,96.35,96.35,0,0,1-6-20.86,141.66,141.66,0,0,1-2.21-25.5V705h29.7a26.89,26.89,0,0,0-2.58,8.34q-1,5.11-1.78,14.14t-1,23.88v6.49a17.68,17.68,0,0,0,1.1,6.49c.74,1.85,1.65,2.78,2.72,2.78h15.69c1.08,0,2-.93,2.72-2.78a17.47,17.47,0,0,0,1.11-6.49V729.6a79.13,79.13,0,0,0-3.52-24.34,119,119,0,0,0-8.86-20.63q-5.32-9.74-11.47-19.47a168.48,168.48,0,0,1-11.46-21.79,154.17,154.17,0,0,1-8.86-26.89q-3.53-14.84-3.52-34.77V550.65a137.89,137.89,0,0,1,2.21-25.27,97,97,0,0,1,6-20.63,44.28,44.28,0,0,1,8.92-13.9q5.13-5.1,10.94-5.1h15.65q5.82,0,11,5.1a43.39,43.39,0,0,1,9,13.9,97,97,0,0,1,6,20.63,137.91,137.91,0,0,1,2.2,25.27V603.5h-29.89a36.7,36.7,0,0,0,2.67-9.27q1-5.57,1.85-15.3t1-26v-2.32a15.69,15.69,0,0,0-1.11-6.26c-.74-1.69-1.64-2.55-2.72-2.55H1026.9c-1.07,0-2,.86-2.72,2.55a15.87,15.87,0,0,0-1.1,6.26v25A68,68,0,0,0,1026.58,597.94Z" transform="translate(-14.78 -143.73)"/></svg>