<svg id="Capa_1" data-name="Capa 1" xmlns="http://www.w3.org/2000/svg" viewBox="0 0 1080 1080"><defs><style>.cls-1{fill:#be1622;}.cls-2{fill:#fff;}.cls-3{fill:#b41917;}.cls-4{fill:#ededed;}.cls-5{fill:#f0efee;}.cls-6{fill:#fcfaf9;}.cls-7{fill:#c91923;}</style></defs><rect class="cls-1" width="1080" height="1080" rx="181.52"/><polygon class="cls-2" points="431.74 920.82 422.47 917.11 405.71 932.4 401.06 951.57 399.19 970.34 403.23 983.35 405.4 995.6 405.09 1008.94 407.27 1021.75 410.52 1024.7 417.06 1008.94 426.78 1000.57 442.07 997.05 449.57 992.43 449.57 977.73 446.39 959.94 442.34 936.4 431.74 920.82"/><polygon class="cls-2" points="663.92 857.57 647.41 824.8 626.12 817.63 613.48 817.63 605.87 821.11 607.37 830.62 604.24 836.2 599.74 845.27 593.88 856.75 589.24 859.19 593.88 865.79 595.31 875.81 593.88 883.21 592.13 891.18 604.24 895.4 608.31 902.23 598 904.85 574.87 908.13 569.79 911.75 574.87 932.4 580.39 939.42 589.24 950.53 593.88 953.08 561.06 959.94 560.31 978.18 568.51 993.94 572.31 1006.59 604.24 998.83 641.44 989.75 660.64 962.42 678.41 925.84 682.55 917.11 664.85 905.3 653.11 900.66 649.89 887.27 658.02 871.28 663.92 857.57"/><path class="cls-2" d="M439.37,1037c-5.33-10.61-4.59-25.2,11.9-33,9.8-4.62,20.08-8.28,29.81-13,6.23-3.06,12.48-6.07,18.66-9.22a19.17,19.17,0,0,0,10-11.84c.17-.53-.75-1.29-.52-1.81.7-.5.55-.89.61-1.55,0-.24-.27-3.59-.23-3.83.93-.2,2.63-4.46,2.92-4.91.63-1,11.12-3.63,1.61,3.73,0,.88.65,0,1.77.71,2.41,1.59,2.81.52,4.91.06,3.84-.34,7.78.27,11.62-.08a4.25,4.25,0,0,1,2.16.5c2.89,1.24,5.8,2.43,8.67,3.7a8,8,0,0,1,2.25,1.4,3.19,3.19,0,0,1,.62,3.79c-.58,1.13-1.94.16-2.85-.08a41.21,41.21,0,0,1-5.54-1.92,11.15,11.15,0,0,0-6.82-1c-2.07.43-4.21.43-6.36,1l9.13,3c2.42.81,4.82,1.7,7.27,2.43,1.92.56,2.3,1.82,1.72,3.3s-2.42,1.25-3.31.85c-2.49-1.14-5.29-.67-7.73-1.62a17.93,17.93,0,0,0-5.87-1.21c-.4,0-1-.23-1.18.3s.48.77,1,.95c4.19,1.61,8.52,2.82,12.82,4.13,1.65.5,4.08.79,3.38,3.13s-2.85.93-4.3.76c-3.75-.43-7.47-1.13-11.21-1.65-.5-.07-1.39-.79-1.62.35-.16.8.24,1.28,1.15,1.53,3.19.87,6.36,1.82,9.54,2.74.79.24,1.58.49,2.36.77a1.93,1.93,0,0,1,1.47,2.14c-.16,1.29-1.34,1-2.13,1a50.27,50.27,0,0,1-11.74-1c-1.13-.22-2.06-.22-2.77.75-5.85.89-11.89,1.09-17.18,4.09-.38.21-.95.62-1.09,0-.54-2.16-1.65-.6-2.18-.21-3.57,2.61-7.1,5.26-10.55,8-6.37,5.07-12.62,10.28-19,15.31a151.49,151.49,0,0,1-13.18,9.65C453.16,1033,446.72,1036,439.37,1037Z" transform="translate(0 -3.33)"/><polygon class="cls-2" points="459.61 824.8 495.02 816.46 504.47 820.63 504.47 834.69 507.12 838.81 513.26 851.61 520.3 859.99 516.74 866.07 516.14 875.81 517.02 889.68 504.47 896.85 510.73 905.03 528.33 909.39 522.45 931.14 500.79 967.32 483 983.35 461.15 993.21 437.55 932.17 429.61 916.66 455.29 900.33 461.02 889.68 455.29 861.22 453.09 847.57 454.37 830.62 459.61 824.8"/><path class="cls-2" d="M697.94,1017a31.17,31.17,0,0,0-5.12-8.8c-6-6.92-13.93-10.51-23.24-11.68-2.82-.35-5.66-.59-8.94-.93,4.91-5.34,10.9-8.34,17.55-10.44a55.41,55.41,0,0,0-12.92,1.78A45.06,45.06,0,0,1,678,974.4a31.46,31.46,0,0,0-10.09,3.45c-.41.21-.64.93-1.28.38s0-.93.18-1.31a45.81,45.81,0,0,1,11-16.17c-3.91.44-6.92,2-10.26,3.58,1.19-4.49,1.94-8.76,3.27-12.93,2.31-7.28,5.24-14.26,10.66-20.07a18,18,0,0,1,5.92-4.76,2.54,2.54,0,0,1,2.63.19c10.34,5.83,14.5,15,16.1,25.6a74,74,0,0,1-.91,27.51,13.89,13.89,0,0,1-.48,1.4,36.15,36.15,0,0,0-10.1-16.34,150.34,150.34,0,0,1,5.15,35.35A31.7,31.7,0,0,0,684.85,993a42.17,42.17,0,0,1,10.7,9.25c2.4,3,4.32,6.09,4.3,10,3,.67,2.67,3.28,2.76,4.41.06.82-1.32,10-2.3,10.49S698.68,1017.07,697.94,1017Z" transform="translate(0 -3.33)"/><path class="cls-1" d="M713.63,973.3a80.07,80.07,0,0,0-.3-22c-1.49-10.78-5.73-20-14.45-27.27-5.73-4.81-12.71-7.7-19.28-11.21-5-2.68-10.3-5-15.39-7.62-6.51-3.33-10.72-8-9.93-15.49a9.31,9.31,0,0,1,4.06-7c6.95-4.72,11.11-11,12.43-18.84,2.81-16.74-6.82-32.6-22.78-39.68a37.13,37.13,0,0,0-13.54-3.32c-6.14-.27-11.85-3.21-18.14-2.6-1.79.18-3.61-.28-5.41.25-7.93,2.33-11.24,10.05-7.14,16.9.46.77.46,1.17-.19,1.81-1.76,1.75-3.47,3.56-5.13,5.4a7,7,0,0,0-1.76,6.91,2.06,2.06,0,0,1-.59,2.31c-3,2.83-5.52,6-8.73,8.63-2.5,2-2.71,5.93.06,7.59,3.06,1.84,3.6,4.46,4.05,7.3.36,2.23,1.59,4.51,0,6.7a5.34,5.34,0,0,0-1,5.17c.21.6-.23.87-.47,1.29-2.75,4.82-1.75,8.19,3.21,11.12a13.55,13.55,0,0,0,6.24,1.66c.94.06,1.57.18,1.59,1.3s-.46,1.23-1.45,1.39c-9.6,1.53-19.19,3.13-28.79,4.7-2.1.34-3-.43-2.29-2.27.82-2.16-1.15-3.34-1.65-5-.86-2.94-3.06-1.78-4.93-1.38-4.82,1-9.39,2.39-14.57.39s-4.44-1.56-6.57,2.52c-.33.63-.81,1.2-1.17,1.82a1.71,1.71,0,0,0-.32,1.41c.77,2.64.54,2.91-2.37,2.41-8.79-1.5-17.58-3.07-26.38-4.58-.93-.16-1.52-.34-1.54-1.39,0-1.21.78-1.16,1.63-1.23a15.45,15.45,0,0,0,8.09-3.11c2.4-1.79,4-4.38,2.56-6.9-1.92-3.45.13-7.81-3.29-10.73a.46.46,0,0,1-.07-.4c1.28-4.11-.42-9.13,4.78-12.07a3.78,3.78,0,0,0,1.37-5.57c-1.82-3.06-4.67-5.25-7.13-7.79-1.89-1.94-4.13-3.67-3.31-6.89.42-1.68-.42-3.33-1.45-4.8a53.65,53.65,0,0,0-5-5.47,1.77,1.77,0,0,1-.28-2.6,9,9,0,0,0-.14-10.63c-3.85-5.7-9.88-6.94-16.46-6.78a24.68,24.68,0,0,0-8.78,2,18.57,18.57,0,0,1-5.92,1.35,40,40,0,0,0-8.29,1.19c-16.76,4.75-28.42,19.57-28.23,36,.12,10.18,3.9,18.67,13.15,24.63a9.1,9.1,0,0,1,3.75,5.9c1.27,5.69-2.41,12.75-7.95,15.52-9.92,5-20,9.57-29.57,15.16-7.2,4.21-13.19,9.29-16.93,16.46S396.34,951,396.05,959c-.45,12.32,1.08,24.36,6.73,35.7a2.78,2.78,0,0,1,.39,1.63c-.85,6.93-.71,13.89-.9,20.84-.19,6.7,2.47,12,8.32,15.88,1,.65,1.35,1.32.69,2.28s-.3,1.81.61,2.54,1.52,1.37,2.29,2.06c5.23,4.74,10.25,9.78,16.72,13.06,7.91,4,5.08,3.93,13.25.68,2.36-.94,4.65-2.2,6.79-3.27,3.34-1.66,3.34-1.66,5.28-2.54,1.59-.71,1-.86,1.95-.86a20,20,0,0,1,2.56-1.6,13.93,13.93,0,0,1,2.57-1.59,41.37,41.37,0,0,0,5.22-4c1.87-1.46,4-2.57,5.88-4s3.36-3.09,5.14-4.53a175.09,175.09,0,0,0,19.22-17.3c.27-.29,1.94-1.81,4-4.06,1-1.38,1.67-1.77,2.42-3,9.61,8,19.77,11.92,32,8.31a.25.25,0,0,1,.35-.12,3.94,3.94,0,0,0,1.43-1.73c.74-5.67,3-10.94,4.88-16.32,1.08-3.17,2.72-6.19,3.56-9.41,1.12-4.31,2.94-8.46,3.83-12.76a69.33,69.33,0,0,0,1-8.49,4.84,4.84,0,0,0-1.07-3.42c-1-1.31-.87-2.52-.39-4a57.36,57.36,0,0,0,1.8-6.81,13.77,13.77,0,0,0-2.45-10.76,2.72,2.72,0,0,1-.59-2.36c2.12-6.56,3-13.37,4.66-20.06,1.55,6.43,3.08,12.82,4.63,19.2a3.69,3.69,0,0,1-.06,2.9c-3.21,5.34-2.9,10.87-1,16.47.73,2.19,1.44,4.27-.1,6.48a4.81,4.81,0,0,0-.37,3.76c1,4.54,1.78,9.11,2.95,13.64,2.5,9.65,6.57,18.83,8.89,28.51.73,1.24.73,2.66,1.07,4,.07.17.14.34.22.5,5.39,2.62,11.06,2.47,16.78,1.32a33.12,33.12,0,0,0,15.84-7.84,8.78,8.78,0,0,1,.95-.65c1.36,1.62,0,0,2.68,3.58,5.89,5.1,4.07,3.91,4.49,4.25,5.81,4.64,6.17,5.51,11.07,9.65s8.31,6.8,13.55,10.84a25.77,25.77,0,0,1,3.59,2.57,57.23,57.23,0,0,0,17.31,10c.55.21,1.4.41,1.54.8.73,2,2.74,2.18,4.36,2.92,2.08,1,4.48,1.49,6.32,2.6,2.49,1.5,4.38.94,6.6,0,9.16-3.84,16-10.39,22.81-17a1.8,1.8,0,0,0,.48-2.32c-.66-1.18-.14-1.76.87-2.43,6-4,8.5-9.51,8.41-16.31-.09-6.54-.51-13.05-1-19.56a5.65,5.65,0,0,1,.55-3.3C711.08,987.28,712.68,980.36,713.63,973.3ZM542.44,914.94c.14-.47.42-1.4,1.37-.75.73.5,2.53,0,1.83,1.89-1.43,3.87-2.69,7.79-4,11.69-1,3-1.91,6-3.06,8.88-.67,1.66.62,2.44,1.5,4-3.39-1.55-4.58-.55-4.46,2.51,0,.67-.82,1.6-1.53,2-3.18,1.82-4,4.91-4.9,7.87-.59,1.94-1.7,3.79-1.56,5.9,0,.75-.44.73-1,.8-4.54.57-4.87.37-3.76-3.67,1.06-3.87,1.31-8,4.21-11.33a9.74,9.74,0,0,1,3.33-2.84,6.82,6.82,0,0,0,3.78-4.49C536.88,929.89,540.19,922.58,542.44,914.94Zm-31.57,13.2c2.72,1,5.55,1.77,8.77,2.76-2.66-6.78-5.7-13-8-19.59,3-.16,5.55,1,8.28,1.34,4.79.61,9.51,1.72,14.26,2.55,1.61.29,2.25.63,1.5,2.41-2.39,5.66-4.52,11.42-6.73,17.15a3.81,3.81,0,0,1-1.86,2.07c-4.82,2.5-7.47,6.51-8.82,11.36a3.86,3.86,0,0,1-1.62,2.15c-3.14,2.35-6.18,4.8-9.25,7.22a6.33,6.33,0,0,0-2,3.52c-.39,1.36-.44,2.81-1.28,4-.24.34.15,1.15-.75.94a1.1,1.1,0,0,1-.71-1c-.74-5.67-2.58-11.1-4-16.62a2.71,2.71,0,0,1,.4-2.71,5.49,5.49,0,0,0,1.34-4.6c-.39-1.79.27-3,1.43-4.39,2.19-2.54,4.19-5.22,6.21-7.88A2.08,2.08,0,0,1,510.87,928.14ZM517,957c0,.25-.11.25-.27.16Zm-8-35.12c.41,1,0,1.63-1.15,1-2.47-1.34-3.93-.39-5.35,1.59-2.1,2.94-4.45,5.74-6.71,8.59a2.64,2.64,0,0,1-2.78,1.35c3.36-7.88,9.05-14.66,11.75-23C506.19,914.91,507.63,918.4,509,921.9Zm-30.7-92.29c3.24-7.73,13.51-9.15,20.13-5a4.49,4.49,0,0,1-4.23,1.45c-5.76-.66-11.16,0-15.7,3.8l-.42.43C477.86,830,478.12,829.8,478.32,829.61Zm16.7,3.83c-3.62,1.32-7-.3-10.48-.73C488.1,832.15,491.52,833.22,495,833.44Zm-17.21-3.16.23,0-.24.15Zm-16.46,38.15c1.3-4.12,7.21-5.19,10.74-1.78,2.57,2.49,4.79,5.29,7.17,7.94a.2.2,0,0,1,.25.14l.81-.12c2.05-1.76,1.72-3.61.64-5.79a29.37,29.37,0,0,1-1.81-5.87,6.34,6.34,0,0,1,1.4-5.58,8.12,8.12,0,0,0,1.14-8.79l-2.14-3-.12-.11a2.65,2.65,0,0,1-1.26-1.19.19.19,0,0,1-.22-.2h-.14V844a.2.2,0,0,1-.23-.18c-1-.52-1-1,0-1.54v-.11h.12l.3-.28.11-.08a19,19,0,0,1,4.49-2.92c1.21-1,2.55-.6,3.85-.27a23.85,23.85,0,0,0,10.23.15c3.2-1.12,3.25-1.1,4.63,1.29a1.37,1.37,0,0,1,.4.09c1.6,1.55,3.1,3.2,4.84,4.59a3.36,3.36,0,0,1,1.41,3.57c-.48,2.29.43,4.14,1.84,5.9,2.27,2.85,4.82,5.47,7.35,8.11,2.19,2.28,2.09,2.66-.84,3.72l-2.73,1-.6.35-.08.17h-.21l-.87.28c-.47.56-1.23.56-1.85.83.47.89,1.41,1,2.3,1.14s1.93.06,2,1.29a2.11,2.11,0,0,1-1.72,2.22c-2.16.66-4.31,1.36-6.49,1.93a21.68,21.68,0,0,1-6.86.56c2.06,4.07,4.37,7.54,9.22,8.49,1.39.28,2.95-.18,4.44-.31,1.29-.12,1.81.38,1.57,1.6a8.72,8.72,0,0,0,.88,5.15c1.1,2.58.36,3.76-2.66,4.34a51.52,51.52,0,0,1-16.3.17c-2.77-.35-5.53-.78-8.29-1.18-.63,0-1.33.4-1.83-.29l-.1.09-.12-.07c.72,1.76,2.44,2.6,3.93,3.59a28.77,28.77,0,0,0,4.55,2.35c3.73,1.59,3.76,1.56,3.52,5.45-.32,5.08-1.07,10.06-4,14.5-.71,2.42-2.38,4.34-3.71,6.53-3.61-5.08-9.39-7.37-14.26-10.72-3.83-2.62-7.91-4.94-10.75-8.64-.61-.38-.16-1.08-.54-1.54-2.92-3.59-2.22-7.19-.54-11.09a56.53,56.53,0,0,0,2.63-9.62c.26-1.12.83-1.2,1.74-1a11.22,11.22,0,0,0,5.37.19c1.19-1.11,2.68-2,3.18-3.64-3,.14-6.13,1-9-.56a2.23,2.23,0,0,1-.45-.42.37.37,0,0,1-.49-.38C463.21,877.46,460.21,872,461.35,868.43Zm51.24,10.09c-1.39,1.09-6.23.67-8.12-.76,2.47-.64,4.71-1.27,7-1.78.61-.13,1.53-1,1.91.06A2.3,2.3,0,0,1,512.59,878.52Zm-79.47,41.39c3.45-1.76,6.73-3.8,10.31-5.34,0-.06.07-.14.13-.17,4.77-2.51,3.23-2.87,7.08.87,1.67,1.62,3.13,3.45,4.68,5.19l.34-.46c-.47-.28-.37-.71-.33-1.12,0-.24-.09-.48-.13-.73a7,7,0,0,1-.82-3.51l-.1-.71a15.2,15.2,0,0,1-.82-5.81c.1-2,2.26-2.6,3.33-4.46a30.67,30.67,0,0,0,4.83,8l.09.13c6,6.06,13.63,10,20.65,14.78a25.88,25.88,0,0,1,6.36,6c.38.51,1,1.23.37,1.86-.9.87-1.28-.29-1.79-.62q-7.26-4.59-14.43-9.28a1.4,1.4,0,0,0-1.95.12q-4.5,3.42-9.12,6.69c-.84.6-.9,1-.38,1.9,2.66,4.49,2.65,4.54,6.48,1.24a2,2,0,0,1,2.77-.26c.9.63,1.88,1.15,2.82,1.72,3.83,1.85,7.64,3.74,11.51,5.52a2.11,2.11,0,0,1,1.2,1.86,7.8,7.8,0,0,0,2.85,4.94,2,2,0,0,1,.83,1.84q-.5,13.38-.93,26.78c.1,1.43.44,3-1.78,3.29l-2,1a13.6,13.6,0,0,1-4.37,2.1l-.06,0c0,.25-.16.32-.4.25-4.11,2-8.11,4.12-12.43,5.68-2.77,1.08-5.56,2.13-8.33,3.23-1,.41-1.39.29-1.57-.85-.82-5.27-1.8-10.52-2.63-15.78-.37-2.34-1.2-4.62-1-7-1.05-4.26-2-8.55-3.17-12.78-2.7-9.77-6.05-19.3-12.43-27.62a52.33,52.33,0,0,0-6-6.41C431.89,921.05,431.91,920.53,433.12,919.91Zm-22.25,101.46c-3.47-6.84.32-19.92,12.4-26.82l.53-.31.43-.39-.37-.43-1.39.4-.85.27-7.29,3.18-.1.07-3.71,3a106.21,106.21,0,0,1,1-14.6l.17-.85c0-.45-.18-.93.3-1.28v0a72,72,0,0,1,2.27-12.77c-.09-1.78.84-3.4,1.07-5.51-4.71,4.67-8.11,9.61-9.55,16.07-1.9-3.54-1.76-6.95-2.08-10.21-1.06-10.55-.47-21,3.87-30.93a29.51,29.51,0,0,1,7.18-9.71,34.89,34.89,0,0,1,5.08-3.95,2.8,2.8,0,0,1,3.74.16,35.39,35.39,0,0,1,11.71,14.11,95,95,0,0,1,6.66,20.26,3.59,3.59,0,0,1,.15,2.48,85.19,85.19,0,0,0-9.74-3c5.18,5.43,9.37,10.74,11.9,17.65-3.59-1.44-6.53-3.08-9.89-3.28,0,1.09,1.35,1.44,1.87,2.35a16.55,16.55,0,0,1,3.27,3.09l.33.37.3.31.17.42a4.39,4.39,0,0,1,2.23,2.18l0,0a15.45,15.45,0,0,1,1.19,1.24,1.07,1.07,0,0,1,0,1.39,1.25,1.25,0,0,1-1.44.27L438,985.33l-.92-.06c-.5.06-1,.18-1.4-.25v0a3.66,3.66,0,0,1-2.54-.33l-.57.16-.9.11h0c0,.12.08.24.11.35.44,0,.9-.05,1.19.38a1.77,1.77,0,0,1,1.46.46.29.29,0,0,1,.37.1,22.19,22.19,0,0,1,6.93,3.32c.36,0,.71.09.88.46l.75.46.09,0a17.14,17.14,0,0,1,6.16,5.2C430.37,996.33,416,1002.81,410.87,1021.37Zm31.47-57.61-.24.14v-.25ZM437.78,1047a1.53,1.53,0,0,1-1.85-.33c-4.71-4.07-8.46-8.69-9.29-14.86a43.36,43.36,0,0,1,.11-14.24c-5.5,6.48-6.14,13.86-4.52,21.61-5.7-3.87-7.26-13.2-3.61-21.88,4.07-9.65,13-15.31,22.49-14.27,0,.5-.4.73-.72,1-7.91,6.24-10.61,14.45-10,23.77.43,6.55,2.24,12.72,7.1,17.76C437.93,1046,438.37,1046.54,437.78,1047Zm88.47-37.37c-4.31-.33-8.15-2-11.93-3.83-.5-.24-1.25-.52-1-1.19s.91-.39,1.42-.44c.91-.08,1.82-.1,2.72-.22,1.06-.13,1.86-.26,1.94,1.22.06,1,1.37,1.25,2.25,1.54a70,70,0,0,0,10,2.82C529.64,1010.29,527.92,1009.73,526.25,1009.61Zm19.84-38c-.58,1.13-1.94.16-2.85-.08a41.21,41.21,0,0,1-5.54-1.92,11.15,11.15,0,0,0-6.82-1c-2.07.43-4.21.43-6.36,1l9.13,3c2.42.81,4.82,1.7,7.27,2.43,1.92.56,2.3,1.82,1.72,3.3s-2.42,1.25-3.31.85c-2.49-1.14-5.29-.67-7.73-1.62a17.93,17.93,0,0,0-5.87-1.21c-.4,0-1-.23-1.18.3s.48.77,1,.95c4.19,1.61,8.52,2.82,12.82,4.13,1.65.5,4.08.79,3.38,3.13s-2.85.93-4.3.76c-3.75-.43-7.47-1.13-11.21-1.65-.5-.07-1.39-.79-1.62.35-.16.8.24,1.28,1.15,1.53,3.19.87,6.36,1.82,9.54,2.74.79.24,1.58.49,2.36.77a1.93,1.93,0,0,1,1.47,2.14c-.16,1.29-1.34,1-2.13,1a50.27,50.27,0,0,1-11.74-1c-1.13-.22-2.06-.22-2.77.75a7.53,7.53,0,0,1-5.07,4c-4,1.13-7.94,2.49-12.22,1.45-1.1-.27-1.7.48-2.31,1.06-3.77,3.59-7.46,7.27-11.28,10.81-9.29,8.6-18,17.77-28.54,25.12a35.76,35.76,0,0,1-19.86,6.42,2.33,2.33,0,0,1-2.5-1.39c-.42-.91-.86-1.81-1.3-2.71-5.33-10.61-4.59-25.2,11.9-33,9.8-4.62,20.08-8.28,29.81-13,6.23-3.06,12.48-6.07,18.66-9.22a19.17,19.17,0,0,0,10-11.84,16.11,16.11,0,0,1,.67-1.55,2.75,2.75,0,0,1,.52-1.89l.12-.72c-.61-4.32,2.84-6.27,5.7-8.55.25,1.76-1.3,2.66-2.17,3.88l-.45.46c0,.88-.7,1.86.41,2.59,2.14-.19,4.19-.92,6.37-.86l11.52-1a4.25,4.25,0,0,1,2.16.5c2.89,1.24,5.8,2.43,8.67,3.7a8,8,0,0,1,2.25,1.4A3.19,3.19,0,0,1,546.09,971.63Zm3-64.49c-.31,2.41-1.11,3.75-2.49,3.66-.62-.24-2.1,0-1.65-1.23.53-1.41.34-3.42,2.31-4A1.4,1.4,0,0,1,549.05,907.14Zm107.62,4.58c-.67,2.06-.54,4.33-1.29,6.42-.1.27-.21.58.15.72a1.07,1.07,0,0,0,1.32-.53c1.35-1.77,2.95-3.35,4.42-5a1.57,1.57,0,0,1,2.26-.42c4.71,2.43,9.39,4.89,14.11,7.3,1.17.59.83,1.12.11,1.74-9.24,8.1-13.87,18.62-17.35,29.63-1.74,5.47-2.7,11.16-4,16.76-1.31,7.62-2.68,15.23-3.86,22.87-.27,1.72-.9,1.72-2.3,1.18a64.56,64.56,0,0,1-6.84-2.8l-1-.24-.19.06-.09-.17a171.91,171.91,0,0,1-19.95-9.11,1.67,1.67,0,0,1-1.05-1.63q-.37-14.26-.85-28.53a1.89,1.89,0,0,1,.82-1.85,6.84,6.84,0,0,0,2.75-4.73,2.91,2.91,0,0,1,1.8-2.22c4.7-2.44,9.69-4.39,14.16-7.22a1.37,1.37,0,0,1,1.95.21,35,35,0,0,1,2.67,2.3c1.28,1.42,2,.74,2.61-.46.21-.38.38-.78.59-1.15,1.62-3,1.62-3-1.26-5.09-1.77-1.31-3.53-2.65-5.29-4-2.06-2.15-3.86-1.47-6,.11-4,2.92-8.21,5.57-12.35,8.31a4.56,4.56,0,0,1-3.37,1.23,29.76,29.76,0,0,1,7.5-8.09c5-3.45,10.09-6.75,15.15-10.11,2-1.86,4.17-3.47,6-5.44a26.64,26.64,0,0,0,5.07-7.78C655.88,906.06,657.84,908.15,656.67,911.72Zm-20-77.77c3.35,1.74,7,2.47,10.7,4.14-11.43-.83-20.8-6.86-31.62-9.39a13.59,13.59,0,0,1,8,.1A69.86,69.86,0,0,1,636.71,834ZM615.2,822.22a18.28,18.28,0,0,1,10.16,2.26,32.08,32.08,0,0,1,7,4.74c-2.66,0-5-1.14-7.35-2.07-3.67-1.48-7.4-1.41-11.12-1.07a6.51,6.51,0,0,0-5.38,4.25C607.45,825.89,610.24,822.6,615.2,822.22ZM601,895.62a23.49,23.49,0,0,1-3.82-.49c-2.5-.46-3.36-1.84-2.31-4.14a9.05,9.05,0,0,0,.55-6.81c7.65,1.3,12.54-1.78,15.67-8.28-3.91,0-7.41-1-11-1.83a19,19,0,0,1-3.53-1.54c-.69-.3-.55-1.1-.53-1.74s.67-.81,1.28-.91c.82-.14,1.62-.32,2.43-.48l.36-.27,0-.12.12,0c-.25-.88-1.37-.59-1.82-1.2l-.09,0c-2-.67-3.7-1.8-5.72-2.37-1.54-.44-1.18-1.41-.33-2.27,1.42-1.45,2.88-2.86,4.32-4.29l.42-.44c1.15-1.4,2.22-2.87,3.47-4.18a6.14,6.14,0,0,0,1.87-5c-.22-2.32.18-4.31,2.37-5.79a22.4,22.4,0,0,0,2.69-2.56,6.25,6.25,0,0,1,6.29-3.14,19.22,19.22,0,0,0,4.28-.19,12.54,12.54,0,0,1,9.56,2.9c1.49.76,3,1.57,4.49,2.27s1.26,1.27.21,2.12a26.16,26.16,0,0,0-2,1.94l-.05.1a.37.37,0,0,1-.36.46h0c-1,2.34-2.35,4.59-1.56,7.31a6.42,6.42,0,0,0,1.11,2.27c2.38,3,2.21,6.16.92,9.44-.76,1.91-1.54,3.8-2.3,5.7.12.37.25.73.37,1.09l.57.54v0c1.07,1.36,2,1.19,3.05-.09,1.75-2.1,3.65-4.08,5.49-6.12a9.22,9.22,0,0,1,3.62-2.44c2.84-1.1,5.39-1.29,6.37,1s2.23,3.59,1.57,5.84c-1.71,5.84-8,9.53-14.48,8.42-1.68-.29-.83.55-.71,1.12l.07.09a6.34,6.34,0,0,0,7.52,2.24c.91-.3,1.44-.16,1.72.94a93,93,0,0,0,4.52,14.17,2.45,2.45,0,0,1-.12,2.4c-1,1.82-1.84,3.72-2.74,5.59-.36,1.68-1.9,2.48-3.11,3.48-5.25,4.31-11.33,7.54-17,11.35a24.78,24.78,0,0,0-4.78,4.6,29.3,29.3,0,0,1-3.39-5.79c-3.3-5.78-3.86-12.1-4.15-18.48,0-1,.55-1.12,1.28-1.4,3.39-1.32,6.73-2.73,9.48-5.1.34-.29,1.08-.58.59-1.15-.2-.24-.82-.18-1.26-.26-3.27.39-6.49,1.23-9.72,1.63C608.89,896.16,604.91,895.73,601,895.62Zm-4.64-19.79a1.63,1.63,0,0,1,1.7-.21c1.28.4,2.56.8,3.86,1.14s2.49.55,4,.88c-3.22,2.2-7.71,1.9-9.22-.33C596.33,876.79,595.91,876.29,596.34,875.83Zm9,35.76.55-.12c2,8.31,8.33,14.82,10.73,23a9.56,9.56,0,0,1-3.56-3.11c-1.95-2.53-3.92-5.06-5.74-7.67-.91-1.3-1.81-1.88-3.46-1.19a17.06,17.06,0,0,1-3,.58C602.39,919.07,603.85,915.33,605.32,911.59Zm-31.17,3.66c1.42-.15,2.83-.41,4.24-.63l20.46-3.54c-2.5,5.63-4.31,11.08-6.92,16.24-.42,1.1-.84,2.19-1.4,3.61,3.22-1,6.14-1.94,9-3a1.71,1.71,0,0,1,2.38.67,77.11,77.11,0,0,0,7.79,9.64c.71.69.46,1.45.39,2.19a7.52,7.52,0,0,0,1.44,5.83,1.41,1.41,0,0,1,.38,1.37c-.89,2.92-1.77,5.83-2.65,8.75a47,47,0,0,1-1.85,7.91l0,.17c.21,1.22-.46,2.29-.64,3.88-1.86-3.53-2.07-7.15-3.87-10.22l0,0a1.34,1.34,0,0,1-.84-.85,86.61,86.61,0,0,1-9.78-7.3,3.64,3.64,0,0,1-1.15-2,16.94,16.94,0,0,0-9.28-11.23,4,4,0,0,1-1.95-2.27c-2.24-5.78-4.44-11.57-6.73-17.34C572.63,915.94,572.76,915.4,574.15,915.25Zm18.23,42h-.25l.08-.25Zm-6,2.49c-1.44-1.06-1.68-2.61-2.16-4-1.27-3.82-1.94-7.9-5.51-10.67-.27-.21-.44-.46-.2-.68a.79.79,0,0,1,1.18.15c1.17,1.2,2.69,2.17,3.38,3.68A42.32,42.32,0,0,1,586.4,959.7Zm-27.5-48.54c-1.09.2-1.9-1.39-1.88-3.48.33-.68.37-1.64,1.63-1.58,1,0,2.47,2.31,2.41,3.81S559.7,911,558.9,911.16Zm6.37,28.59c-1.09-4.47-2.31-8.91-3.56-13.34-.94-3.3-1.74-6.66-2.47-10-.14-.6-.27-1.21.63-1.25s2-.32,2.45,1.15c1.24,4.51,2.63,9,4,13.47a70,70,0,0,0,3,9.26c.57,1.22,0,3.18-.58,4.56-2.1,4.61-.94,9,.47,13.45.93,3,.88,2.94-2.22,3.87-.81.25-1.29.19-1.52-.65-.91-3.43-1.83-6.86-2.65-9.89a13.89,13.89,0,0,1,1.76-5.91A5.76,5.76,0,0,0,565.27,939.75Zm12.53,70.32c-.84,0-1.15-.49-1.37-1.16-.85-2.54-1.79-5-2.57-7.61-.25-.81-.16-1.85,1.19-1.75,1.09.08,2.58-1.77,3.26.58.57,2,1.43,3.89,1.89,5.89s1.54,2.35,3.42,1.89c2.7-.66,5.43-1.2,8.12-1.88a3.84,3.84,0,0,1,2.14,0C588.92,1009.48,583.42,1010,577.8,1010.07ZM665.17,1041c-9.33-.49-16.56-4.82-23.29-10.4a449.11,449.11,0,0,1-33.8-30.93c-2-2-3.94-1.61-6.23-1.69-5.46-.22-10.89-.73-14.25-5.66a3.07,3.07,0,0,0-2.88-.72,58.68,58.68,0,0,1-12,1c-1,0-2.33.25-2.57-1.11s1-1.87,2-2.17c3.68-1.06,7.4-2,11.11-3,.5-.14,1-.31,1.5-.47a1.07,1.07,0,0,0,.78-1.35c-.14-1-.88-.55-1.4-.48-4.34.61-8.68,1.26-13,1.86-1.23.17-2.82.61-3.13-1.11-.28-1.5.94-2.26,2.35-2.66,4.68-1.35,9.4-2.56,13.93-4.33.53-.2,1.41-.25,1.23-1s-1-.39-1.56-.34c-4.69.44-9.19,1.77-13.81,2.52-1.11.18-2.61,1.11-3.18-.74s.32-2.94,2.19-3.43c5.6-1.46,10.85-4,16.61-4.94.11,0,.18-.2.43-.47-5.77-.54-11.4-1.86-16.78,1.14a13.5,13.5,0,0,1-3.35,1.25c-.87.21-2.21,1.31-2.61-.26-.35-1.41-.91-3.3,1-4.19,3.65-1.7,7.39-3.22,11.12-4.76a5.75,5.75,0,0,1,3.36-.11c3.4.74,6.93,0,10.29.91,1.1.14,2.2.28,3.31.4.71.09,1.6.51,2-.29a2.54,2.54,0,0,0-.21-2.42c-.68-1.23-2-2.17-1.94-3.75l4.08,3.34.06,0a2.23,2.23,0,0,1,1.44.82c1,2.57,1.07,5.32,1.9,7.95a20.24,20.24,0,0,0,11,12.85c8.56,4.21,17.09,8.43,25.84,12.32s18,7.07,26.18,12.15c13.11,8.13,13,21.93,7.89,30.64C669.36,1041.17,669.1,1041.15,665.17,1041Zm23.27-2.12c1.6-8.14.07-15.43-5.32-21.87a39.27,39.27,0,0,1-.08,17.46c-1.55,6.22-5.62,10.45-11.9,12.92,6.84-6.24,8.94-14.15,8.88-22.64-.07-8.75-3.66-16.12-11.46-21.59,7.75-1.64,17.48,3.63,21.86,11.58C695.18,1023.32,694.4,1033.85,688.44,1038.83Zm16.78-59a13.89,13.89,0,0,1-.48,1.4,36.15,36.15,0,0,0-10.1-16.34,150.34,150.34,0,0,1,5.15,35.35A31.7,31.7,0,0,0,684.85,993a42.17,42.17,0,0,1,10.7,9.25c2.4,3,4.32,6.09,4.3,10,1.68,2.84.64,5.78.34,8.69a14.9,14.9,0,0,1-.67,2.3l-1.58-6.26a31.17,31.17,0,0,0-5.12-8.8c-6-6.92-13.93-10.51-23.24-11.68-2.82-.35-5.66-.59-8.94-.93,4.91-5.34,10.9-8.34,17.55-10.44a55.41,55.41,0,0,0-12.92,1.78A45.06,45.06,0,0,1,678,974.4a31.46,31.46,0,0,0-10.09,3.45c-.41.21-.64.93-1.28.38s0-.93.18-1.31a45.81,45.81,0,0,1,11-16.17c-3.91.44-6.92,2-10.26,3.58,1.19-4.49,1.94-8.76,3.27-12.93,2.31-7.28,5.24-14.26,10.66-20.07a18,18,0,0,1,5.92-4.76,2.54,2.54,0,0,1,2.63.19c10.34,5.83,14.5,15,16.1,25.6A74,74,0,0,1,705.22,979.87Z" transform="translate(0 -3.33)"/><path class="cls-2" d="M587.6,992.55a3.07,3.07,0,0,0-2.88-.72,58.68,58.68,0,0,1-12,1c-1-.05-2.33.25-2.57-1.11s1-1.87,2-2.17c3.68-1,7.4-2,11.11-3,.5-.14,1-.31,1.5-.47a1.07,1.07,0,0,0,.78-1.35c-.14-1-.88-.55-1.4-.48-4.34.61-8.68,1.27-13,1.86-1.23.17-2.82.61-3.13-1.1-.28-1.51.94-2.27,2.35-2.67,4.68-1.34,9.4-2.56,13.93-4.33.53-.2,1.41-.25,1.23-1s-1-.38-1.56-.33c-4.69.43-9.19,1.77-13.81,2.51-1.11.18-2.61,1.11-3.18-.74s.32-2.93,2.19-3.42c5.6-1.47,10.85-4,16.61-4.95.11,0,.18-.19.43-.47-5.77-.54-11.4-1.86-16.78,1.14a13.5,13.5,0,0,1-3.35,1.25c-.87.22-2.21,1.31-2.61-.26-.35-1.41-.91-3.3,1-4.19,3.65-1.7,7.39-3.22,11.12-4.76a5.75,5.75,0,0,1,3.36-.11c3.4.74,6.93,0,10.29.91.84,1.39,2.55.29,3.64,1.16s1.78.21,2.28-.73a6,6,0,0,0,.42-3.09h0l.91,0,.06,0c0,1,.77.85,1.44.82,1,2.57,1.07,5.33,1.9,8a20.25,20.25,0,0,0,11,12.84c8.56,4.21,17.09,8.43,25.84,12.32s18,7.07,26.18,12.15c13.11,8.14,13,21.93,7.89,30.65a3.44,3.44,0,0,0-1.92-1,44.2,44.2,0,0,1-15.05-5.62,161.47,161.47,0,0,1-13.94-9.82c-8.82-6.88-17.51-13.91-26.38-20.72-2.29-1.76-4.47-3.78-7.4-4.71l-.22-.06.16.12c0,1.73-.83,1.16-1.83.63C599.05,993.84,593.26,993.43,587.6,992.55Z" transform="translate(0 -3.33)"/><path class="cls-2" d="M519.64,930.9c-2.66-6.78-5.7-13-8-19.59,3-.16,5.55,1,8.28,1.34,4.79.61,9.51,1.72,14.26,2.55,1.61.29,2.25.63,1.5,2.41-2.39,5.66-4.52,11.42-6.73,17.15a3.81,3.81,0,0,1-1.86,2.07c-4.82,2.5-7.47,6.51-8.82,11.36a3.86,3.86,0,0,1-1.62,2.15c-3.14,2.35-6.18,4.8-9.25,7.22a6.33,6.33,0,0,0-2,3.52c-.39,1.36-.44,2.81-1.28,4-.24.34.15,1.15-.75.94a1.1,1.1,0,0,1-.71-1c-.74-5.67-2.58-11.1-4-16.62a2.71,2.71,0,0,1,.4-2.71,5.49,5.49,0,0,0,1.34-4.6c-.39-1.79.27-3,1.43-4.39,2.19-2.54,4.19-5.22,6.21-7.88a2.08,2.08,0,0,1,2.85-.74C513.59,929.15,516.42,929.91,519.64,930.9Z" transform="translate(0 -3.33)"/><path class="cls-3" d="M587.6,992.27c5.66.87,11.45,1.29,16.6,4,1,.53,1.81,1.1,1.83-.63l.06-.06c2.93.93,5.11,3,7.4,4.7,8.87,6.82,17.56,13.85,26.38,20.73a161.47,161.47,0,0,0,13.94,9.82,44.2,44.2,0,0,0,15.05,5.62,3.49,3.49,0,0,1,1.92.94c-1.42,3.8-1.68,3.78-5.61,3.58-9.33-.49-16.56-4.82-23.29-10.4a449.11,449.11,0,0,1-33.8-30.93c-2-2-3.94-1.61-6.23-1.69C596.39,997.71,591,997.2,587.6,992.27Z" transform="translate(0 -3.33)"/><path class="cls-3" d="M439.37,1037c7.35-1,13.79-4,19.88-7.85a151.49,151.49,0,0,0,13.18-9.65c6.4-5,12.65-10.24,19-15.31,3.45-2.75,7-5.4,10.55-8,.53-.39,1.64-1.95,2.18.21.14.59.71.18,1.09,0,5.29-3,11.33-3.2,17.18-4.09a7.53,7.53,0,0,1-5.07,4c-4,1.13-7.94,2.49-12.22,1.45-1.1-.27-1.7.48-2.31,1.06-3.77,3.59-7.46,7.27-11.28,10.81-9.29,8.6-18,17.77-28.54,25.12a35.76,35.76,0,0,1-19.86,6.42,2.33,2.33,0,0,1-2.5-1.39C440.25,1038.79,439.81,1037.89,439.37,1037Z" transform="translate(0 -3.33)"/><path class="cls-2" d="M426.75,1017.55c-5.5,6.48-6.14,13.86-4.52,21.61-5.7-3.87-7.26-13.2-3.61-21.88,4.07-9.65,13-15.31,22.49-14.27,0,.5-.4.73-.72,1-7.91,6.24-10.61,14.45-10,23.77.43,6.55,2.24,12.72,7.1,17.76.43.44.87,1,.28,1.46a1.53,1.53,0,0,1-1.85-.33c-4.71-4.07-8.46-8.69-9.29-14.86A43.36,43.36,0,0,1,426.75,1017.55Z" transform="translate(0 -3.33)"/><path class="cls-2" d="M688.44,1038.83c1.6-8.14.07-15.43-5.32-21.87a39.27,39.27,0,0,1-.08,17.46c-1.55,6.22-5.62,10.45-11.9,12.92,6.84-6.24,8.94-14.15,8.88-22.64-.07-8.75-3.66-16.12-11.46-21.59,7.75-1.64,17.48,3.63,21.86,11.58C695.18,1023.32,694.4,1033.85,688.44,1038.83Z" transform="translate(0 -3.33)"/><path class="cls-2" d="M540.06,940.62c-3.39-1.55-4.58-.55-4.46,2.51,0,.67-.82,1.6-1.53,2-3.18,1.82-4,4.91-4.9,7.87-.59,1.94-1.7,3.79-1.56,5.9,0,.75-.44.73-1,.8-4.54.57-4.87.37-3.76-3.67,1.06-3.87,1.31-8,4.21-11.33a9.74,9.74,0,0,1,3.33-2.84,6.82,6.82,0,0,0,3.78-4.49c2.71-7.49,6-14.8,8.27-22.44.14-.47.42-1.4,1.37-.75.73.5,2.53,0,1.83,1.89-1.43,3.87-2.69,7.79-4,11.69-1,3-1.91,6-3.06,8.88C537.89,938.31,539.18,939.09,540.06,940.62Z" transform="translate(0 -3.33)"/><path class="cls-2" d="M562.84,950.35a13.89,13.89,0,0,1,1.76-5.91,5.76,5.76,0,0,0,.67-4.69c-1.09-4.47-2.31-8.91-3.56-13.34-.94-3.3-1.74-6.66-2.47-10-.14-.6-.27-1.21.63-1.25s2-.32,2.45,1.15c1.24,4.51,2.63,9,4,13.47a70,70,0,0,0,3,9.26c.57,1.22,0,3.18-.58,4.56-2.1,4.61-.94,9,.47,13.45.93,3,.88,2.94-2.22,3.87-.81.25-1.29.19-1.52-.65C564.58,956.81,563.66,953.38,562.84,950.35Z" transform="translate(0 -3.33)"/><path class="cls-4" d="M643.39,989.56c.9-6.5,3.91-12.17,7.71-17.56a9.53,9.53,0,0,1,5.29-3.69c-1.31,7.62-2.68,15.23-3.86,22.87-.27,1.72-.9,1.72-2.3,1.18A64.56,64.56,0,0,1,643.39,989.56Z" transform="translate(0 -3.33)"/><path class="cls-4" d="M622.47,894.05c1.38-.36,0,0,2.75-1-2,8.9-4.3,17.48-8.07,25.64a18,18,0,0,0-.62,1.79c-3.3-5.78-3.86-12.1-4.15-18.48,0-1,.55-1.12,1.28-1.4,3.39-1.32,6.73-2.73,9.48-5.1.34-.29,1.08-.58.59-1.15C623.53,894.07,622.91,894.13,622.47,894.05Z" transform="translate(0 -3.33)"/><path class="cls-4" d="M454.41,968.75c2.39.27,3.17,2.4,4.62,3.69,3.58,3.21,4.72,7.77,6.8,11.83.83,1.61.28,3.7,2.09,4.91-2.77,1.08-5.56,2.13-8.33,3.23-1,.41-1.39.29-1.57-.85-.82-5.27-1.8-10.52-2.63-15.78C455,973.44,454.19,971.16,454.41,968.75Z" transform="translate(0 -3.33)"/><path class="cls-4" d="M494,919.68c-3.7-6.93-5.69-14.39-7.74-21.83a11.73,11.73,0,0,0-.79-2.41c-.44-.82-.36-1.31.56-1.65.72,1.76,2.44,2.6,3.93,3.59a28.77,28.77,0,0,0,4.55,2.35c3.73,1.59,3.76,1.56,3.52,5.45C497.69,910.26,496.94,915.24,494,919.68Z" transform="translate(0 -3.33)"/><path class="cls-5" d="M471,935.6c.12,0,.26.16.35.13" transform="translate(0 -3.33)"/><path class="cls-4" d="M644.78,906.8a2.08,2.08,0,0,0,.24-2.22c-3-5.77-4.74-12-7.92-17.73-.29-.51-.42-1.15-1.16-1.11s-.31.76-.48,1.13c-.37.79-1.17.48-1.78.4s-.91-.72-.57-1.12c1.24-1.46.54-3.13.77-4.69a6.34,6.34,0,0,0,7.52,2.24c.91-.3,1.44-.16,1.72.94a93,93,0,0,0,4.52,14.17,2.45,2.45,0,0,1-.12,2.4C646.51,903,645.68,904.93,644.78,906.8Z" transform="translate(0 -3.33)"/><path class="cls-4" d="M473.92,883.84c-.49,3.27-2.55,6-3.59,9.07-1.59,4.68-4.4,9-5.07,13.94-.61-.38-.16-1.08-.54-1.54-2.92-3.59-2.21-7.19-.54-11.09a56.53,56.53,0,0,0,2.63-9.62c.26-1.12.83-1.2,1.74-1A11.22,11.22,0,0,0,473.92,883.84Z" transform="translate(0 -3.33)"/><path class="cls-2" d="M593.88,1006c-5,3.5-10.46,4-16.08,4.09-.84,0-1.15-.49-1.37-1.16-.85-2.54-1.79-5-2.57-7.61-.25-.81-.16-1.85,1.19-1.75,1.09.08,2.58-1.77,3.26.58.57,2,1.43,3.89,1.89,5.89s1.54,2.35,3.42,1.89c2.7-.66,5.43-1.2,8.12-1.88A3.84,3.84,0,0,1,593.88,1006Z" transform="translate(0 -3.33)"/><path class="cls-2" d="M531.61,1009.51c-2,.78-3.69.22-5.36.1-4.31-.33-8.15-2-11.93-3.83-.5-.24-1.25-.52-1-1.19s.91-.39,1.42-.44c.91-.08,1.82-.1,2.72-.22,1.06-.13,1.86-.26,1.94,1.22.06,1,1.37,1.25,2.25,1.54A70,70,0,0,0,531.61,1009.51Z" transform="translate(0 -3.33)"/><path class="cls-2" d="M586.4,959.7c-1.44-1.06-1.68-2.61-2.16-4-1.27-3.82-1.94-7.9-5.51-10.67-.27-.21-.44-.46-.2-.68a.79.79,0,0,1,1.18.15c1.17,1.2,2.69,2.17,3.38,3.68A42.32,42.32,0,0,1,586.4,959.7Z" transform="translate(0 -3.33)"/><path class="cls-2" d="M546.56,910.8c-.62-.24-2.1,0-1.65-1.23.53-1.41.34-3.42,2.31-4a1.4,1.4,0,0,1,1.83,1.53C548.74,909.55,547.94,910.89,546.56,910.8Z" transform="translate(0 -3.33)"/><path class="cls-2" d="M557,907.68c.33-.68.37-1.64,1.63-1.58,1,0,2.47,2.31,2.41,3.81s-1.36,1.11-2.16,1.25C557.81,911.36,557,909.77,557,907.68Z" transform="translate(0 -3.33)"/><path class="cls-6" d="M569.2,1010c0,.31,0,.62,0,.93a26.67,26.67,0,0,1,.89,2.52c.06.19.13.37.19.55" transform="translate(0 -3.33)"/><path class="cls-5" d="M510,868.66l-1-.06h0" transform="translate(0 -3.33)"/><path class="cls-5" d="M511.85,867.83" transform="translate(0 -3.33)"/><path class="cls-5" d="M432.54,984.87l-.9.11" transform="translate(0 -3.33)"/><path class="cls-6" d="M514.09,961.55l.14-.91" transform="translate(0 -3.33)"/><path class="cls-5" d="M479.5,874.73l.82-.12" transform="translate(0 -3.33)"/><path class="cls-5" d="M628.9,873.69l-.56-.54Z" transform="translate(0 -3.33)"/><path class="cls-5" d="M477.81,844.12V844" transform="translate(0 -3.33)"/><path class="cls-5" d="M600.1,869.13l-.36.27Z" transform="translate(0 -3.33)"/><path class="cls-5" d="M424.23,993.85l-.44.39Z" transform="translate(0 -3.33)"/><path class="cls-5" d="M516.73,957.19,517,957c0,.28-.13.26-.32.13Z" transform="translate(0 -3.33)"/><path class="cls-5" d="M592.42,957.21h-.29l.08-.25.19.28Z" transform="translate(0 -3.33)"/><path class="cls-5" d="M480.35,983.5l.4-.25C480.73,983.5,480.59,983.57,480.35,983.5Z" transform="translate(0 -3.33)"/><path class="cls-5" d="M478,841.86a.41.41,0,0,1-.3.28Z" transform="translate(0 -3.33)"/><path class="cls-5" d="M478.09,830.27l-.29.18v-.17l.32,0Z" transform="translate(0 -3.33)"/><path class="cls-5" d="M512.72,867.55a.28.28,0,0,1,.29-.18l-.08.17Z" transform="translate(0 -3.33)"/><path class="cls-6" d="M442.07,963.64l.27.12-.24.14v-.27Z" transform="translate(0 -3.33)"/><path class="cls-5" d="M440.11,981.06l-.3-.31Z" transform="translate(0 -3.33)"/><path class="cls-5" d="M478.09,830.27l0,0c-.3-.31,0-.49.18-.69" transform="translate(0 -3.33)"/><path class="cls-5" d="M629.8,847.34l.36-.46A.37.37,0,0,1,629.8,847.34Z" transform="translate(0 -3.33)"/><path class="cls-5" d="M642.14,989.21a.29.29,0,0,1,.28.11l-.19.06Z" transform="translate(0 -3.33)"/><path class="cls-5" d="M606,995.62l-.16-.12.22.06Z" transform="translate(0 -3.33)"/><path class="cls-1" d="M502.78,847.41c.72.49,2.15,0,2.07,1.62-.06,1.14-.32,2-1.52,2.28-5.07,1.28-10.06,2.74-14.72,5.8,1.38-4.12,3.33-7.19,7.8-8.06.38,0,.59-.21.61-.57l0,0,.26.28a.5.5,0,0,0,.8-.18h0c1.56-.33,3.3-.05,4.61-1.2Z" transform="translate(0 -3.33)"/><path class="cls-7" d="M469.53,877a11,11,0,0,1-4.78-5.21,2.46,2.46,0,0,1,.69-3.26,2.68,2.68,0,0,1,3.33,0c.77.46,1.47,1,2.19,1.52s1,1.15.2,1.78c-1.21,1-.6,1.84.2,2.71s1.81,1.36,1.71,2.62l0,0c-1.06.47-2.11.05-3.16,0l-.15-.12Z" transform="translate(0 -3.33)"/><path class="cls-1" d="M493.66,859.94c1.9-4.4,7.49-6.34,11.48-4l-.59.28c-1.19-.52-1.42.13-1.48,1-.07,1.33-.16,2.66-1.38,3.6-.5,0-1,.18-1.43-.34C498.31,858.07,496.08,858,493.66,859.94Z" transform="translate(0 -3.33)"/><path class="cls-5" d="M490.74,860.58" transform="translate(0 -3.33)"/><path class="cls-5" d="M489,860.08h0" transform="translate(0 -3.33)"/><path class="cls-5" d="M509,868.6h0" transform="translate(0 -3.33)"/><path class="cls-5" d="M508.37,869" transform="translate(0 -3.33)"/><path class="cls-5" d="M497.32,848.79" transform="translate(0 -3.33)"/><path class="cls-5" d="M433.42,983.66l-.1.16.1-.16Z" transform="translate(0 -3.33)"/><path class="cls-1" d="M610.17,848.13c1.45.4,2.89.82,4.34,1.19,4.16,1.06,6.32,3.42,7,7.84-4.28-3.06-9.1-4.63-14.05-5.93-.75-.2-1.63-.31-1.83-1.33-.42-2.14.35-2.8,2.59-2.13.35.11.72.16,1.09.24Z" transform="translate(0 -3.33)"/><path class="cls-7" d="M637.12,876.79c.55-.76,1.07-1.54,1.66-2.27s1-1.4.57-1.94c-1.39-1.84.17-2.62,1.24-3.64a3.18,3.18,0,0,1,3.24-1c1.44.45,1.7,1.81,1.9,2.87.61,3.25-5.19,7.43-8.57,6.3A.22.22,0,0,0,637.12,876.79Z" transform="translate(0 -3.33)"/><path class="cls-1" d="M608.77,860.86a3.23,3.23,0,0,1-1.42-3c.06-1.07-.35-2-1.9-1.85,3.32-2.41,8.3-.83,11.22,3.78-2.63-1.41-4.93-2.2-6.52.62Z" transform="translate(0 -3.33)"/><path class="cls-6" d="M515.78,865" transform="translate(0 -3.33)"/><path class="cls-6" d="M516,864.56" transform="translate(0 -3.33)"/><path class="cls-6" d="M604.7,845.59l.1-.16-.1.16Z" transform="translate(0 -3.33)"/><path class="cls-6" d="M617.91,859.23l-.1.16.1-.16Z" transform="translate(0 -3.33)"/><path class="cls-7" d="M455.88,1047.31,505.22,1007Z" transform="translate(0 -3.33)"/><line class="cls-7" x1="455.88" y1="1043.98" x2="505.22" y2="1003.63"/><path class="cls-2" d="M145.28,173.57a34.66,34.66,0,0,1,17.35,4.62,47.08,47.08,0,0,1,14.16,12.6,63.32,63.32,0,0,1,9.55,18.69,73.34,73.34,0,0,1,3.5,22.89V414.23a73.34,73.34,0,0,1-3.5,22.89,63.32,63.32,0,0,1-9.55,18.69,46.81,46.81,0,0,1-14.16,12.6A34.55,34.55,0,0,1,145.28,473H65.08q2.22-2.52,4.14-8.4a92,92,0,0,0,2.86-13.86Q73.36,442,74,427.25V219.35q-.64-14.7-1.91-23.52A92,92,0,0,0,69.22,182c-1.28-3.91-2.66-6.72-4.14-8.4Zm6.05,58.8a9.16,9.16,0,0,0-1.75-5.67,5.26,5.26,0,0,0-4.3-2.31H112.5V422.21h32.78a5.24,5.24,0,0,0,4.3-2.31,9.14,9.14,0,0,0,1.75-5.67Z" transform="translate(0 -3.33)"/><path class="cls-2" d="M300.91,221.45v11.34c-1.28-1.95-3.61-3.78-7-5.46a67.42,67.42,0,0,0-12.1-4q-7.63-1.89-20.37-1.89H246.17v68.46H290.4l-7.63,57.54a14.33,14.33,0,0,0-5.73-4.62q-3.51-2.1-10.35-3.36a132.27,132.27,0,0,0-18.3-1.68h-2.22v87.36h20.05A78.18,78.18,0,0,0,284,422.84a51.42,51.42,0,0,0,10.5-4,15,15,0,0,0,6.37-5V473H199.38a25.3,25.3,0,0,0,3.5-7.56,78.49,78.49,0,0,0,2.87-12.39,196.52,196.52,0,0,0,1.91-20.79v-218a205.79,205.79,0,0,0-1.91-21,78.7,78.7,0,0,0-2.87-12.6,25.3,25.3,0,0,0-3.5-7.56l101.53.42Z" transform="translate(0 -3.33)"/><path class="cls-2" d="M384,173.57a34.59,34.59,0,0,1,17.34,4.62,47.11,47.11,0,0,1,14.17,12.6A63.3,63.3,0,0,1,425,209.48a73.05,73.05,0,0,1,3.51,22.89v71.82A73,73,0,0,1,425,327.08a63.18,63.18,0,0,1-9.54,18.69,46.85,46.85,0,0,1-14.17,12.6A34.39,34.39,0,0,1,384,363H358.19v63a219.24,219.24,0,0,0,1.59,24.36,90.52,90.52,0,0,0,2.87,14.28q1.58,5.88,4.13,8.4h-56q2.22-2.52,4.14-8.4a91.87,91.87,0,0,0,2.86-14.07q1.28-9,1.91-24.15V219.77q-.65-14.7-1.91-23.73A92.13,92.13,0,0,0,314.91,182c-1.28-3.91-2.66-6.72-4.14-8.4Zm6,58.8a9.16,9.16,0,0,0-1.75-5.67,5.27,5.27,0,0,0-4.3-2.31H358.19v87.78H384a5.25,5.25,0,0,0,4.3-2.31,9.12,9.12,0,0,0,1.75-5.67Z" transform="translate(0 -3.33)"/><path class="cls-2" d="M512.54,170.63a34.63,34.63,0,0,1,17.35,4.62,47,47,0,0,1,14.16,12.6,63.32,63.32,0,0,1,9.55,18.69,73.34,73.34,0,0,1,3.5,22.89V417.17a75.33,75.33,0,0,1-3.5,23.1,62.85,62.85,0,0,1-9.55,18.9,46.69,46.69,0,0,1-14.16,12.6,34.53,34.53,0,0,1-17.35,4.62H485.81a34.5,34.5,0,0,1-17.35-4.62,46.69,46.69,0,0,1-14.16-12.6,62.85,62.85,0,0,1-9.55-18.9,75.33,75.33,0,0,1-3.5-23.1V229.43a73.34,73.34,0,0,1,3.5-22.89,63.32,63.32,0,0,1,9.55-18.69,47,47,0,0,1,14.16-12.6,34.6,34.6,0,0,1,17.35-4.62Zm6.05,58.8a9.16,9.16,0,0,0-1.75-5.67,5.26,5.26,0,0,0-4.3-2.31H485.81a5.26,5.26,0,0,0-4.3,2.31,9.1,9.1,0,0,0-1.75,5.67V417.17a10,10,0,0,0,1.75,5.88,5.13,5.13,0,0,0,4.3,2.52h26.73a5.13,5.13,0,0,0,4.3-2.52,10.1,10.1,0,0,0,1.75-5.88Z" transform="translate(0 -3.33)"/><path class="cls-2" d="M617.06,272.27A97.72,97.72,0,0,0,631,290.12q8.4,8.61,18.23,17.85a169.34,169.34,0,0,1,18.22,20.16,103.61,103.61,0,0,1,13.94,24.78q5.55,13.86,5.55,31.92v32.34a75.33,75.33,0,0,1-3.49,23.1,62.58,62.58,0,0,1-9.52,18.9,46,46,0,0,1-14.28,12.6,35.2,35.2,0,0,1-17.46,4.62H617.44a34.32,34.32,0,0,1-17.3-4.62A46.44,46.44,0,0,1,586,459.17a62.81,62.81,0,0,1-9.52-18.9,75.33,75.33,0,0,1-3.49-23.1V369.29h47a18.25,18.25,0,0,0-4.07,7.56,78.88,78.88,0,0,0-2.83,12.81,177.76,177.76,0,0,0-1.56,21.63v5.88a10,10,0,0,0,1.75,5.88,5.1,5.1,0,0,0,4.29,2.52h24.83a5.11,5.11,0,0,0,4.29-2.52,10,10,0,0,0,1.75-5.88V391.55a44.11,44.11,0,0,0-5.57-22.05,93.91,93.91,0,0,0-14-18.69q-8.43-8.82-18.14-17.64a151.91,151.91,0,0,1-18.14-19.74,105.78,105.78,0,0,1-14-24.36Q573,275.63,573,257.57V229.43a73.34,73.34,0,0,1,3.49-22.89A63.27,63.27,0,0,1,586,187.85a46.71,46.71,0,0,1,14.12-12.6,34.42,34.42,0,0,1,17.3-4.62h24.75a35.31,35.31,0,0,1,17.46,4.62,46.21,46.21,0,0,1,14.28,12.6,63,63,0,0,1,9.52,18.69,73.34,73.34,0,0,1,3.49,22.89v47.88H639.66c1.51-1.68,2.92-4.47,4.22-8.4a89.49,89.49,0,0,0,2.93-13.86,198.82,198.82,0,0,0,1.62-23.52v-2.1a9.1,9.1,0,0,0-1.75-5.67,5.24,5.24,0,0,0-4.29-2.31H617.56a5.23,5.23,0,0,0-4.29,2.31,9.1,9.1,0,0,0-1.75,5.67v22.68A38.38,38.38,0,0,0,617.06,272.27Z" transform="translate(0 -3.33)"/><path class="cls-2" d="M748,182.39a140.41,140.41,0,0,0-3,16,200.78,200.78,0,0,0-1.43,26.88V421.37A195.78,195.78,0,0,0,745,448a141.1,141.1,0,0,0,3,15.75q1.92,6.72,4.46,9.24H696.81a25.81,25.81,0,0,0,3.5-7.56,80.29,80.29,0,0,0,2.86-12.18,185.66,185.66,0,0,0,1.91-20.58V213.89a194.4,194.4,0,0,0-1.91-20.79,80.35,80.35,0,0,0-2.86-12.39,25.81,25.81,0,0,0-3.5-7.56H752.5C750.8,174.83,749.32,177.92,748,182.39Z" transform="translate(0 -3.33)"/><path class="cls-2" d="M881.07,173.15v59.64a20.38,20.38,0,0,0-7.32-5.46,67,67,0,0,0-12.09-4q-7.63-1.89-20.37-1.89h-2.23V428.51a174.45,174.45,0,0,0,1.75,23.1,85.74,85.74,0,0,0,3,13.44q1.59,5.46,3.82,8H792a21.05,21.05,0,0,0,3.82-7.56,79.1,79.1,0,0,0,2.86-12.18,185.25,185.25,0,0,0,1.92-20.58V221.45h-2.23q-12.74,0-20.37,1.89a67.14,67.14,0,0,0-12.1,4c-3.39,1.68-5.72,3.51-7,5.46V173.15Z" transform="translate(0 -3.33)"/><path class="cls-2" d="M961.91,170.63a34.59,34.59,0,0,1,17.34,4.62,47.11,47.11,0,0,1,14.17,12.6,63.3,63.3,0,0,1,9.54,18.69,73.05,73.05,0,0,1,3.5,22.89V417.17a75,75,0,0,1-3.5,23.1,62.84,62.84,0,0,1-9.54,18.9,46.85,46.85,0,0,1-14.17,12.6,34.49,34.49,0,0,1-17.34,4.62H935.17a34.49,34.49,0,0,1-17.34-4.62,46.69,46.69,0,0,1-14.16-12.6,62.4,62.4,0,0,1-9.55-18.9,75,75,0,0,1-3.5-23.1V229.43a73.05,73.05,0,0,1,3.5-22.89,62.85,62.85,0,0,1,9.55-18.69,47,47,0,0,1,14.16-12.6,34.59,34.59,0,0,1,17.34-4.62Zm6.05,58.8a9.1,9.1,0,0,0-1.76-5.67,5.24,5.24,0,0,0-4.29-2.31H935.17a5.23,5.23,0,0,0-4.29,2.31,9.1,9.1,0,0,0-1.75,5.67V417.17a10,10,0,0,0,1.75,5.88,5.1,5.1,0,0,0,4.29,2.52h26.74a5.11,5.11,0,0,0,4.29-2.52,10,10,0,0,0,1.76-5.88Z" transform="translate(0 -3.33)"/><path class="cls-2" d="M133.54,783.87H70.48a27.31,27.31,0,0,0,2.36-7.54A119.84,119.84,0,0,0,74.61,764q.78-7.76,1.18-20.74V525.86q-.41-13-1.18-20.94a120.61,120.61,0,0,0-1.77-12.57,27.42,27.42,0,0,0-2.36-7.54h34.38a28,28,0,0,0-2.36,8,122.9,122.9,0,0,0-1.77,12.77q-.78,8.18-1.17,21.58v209h12.57a31.46,31.46,0,0,0,11-2.3,26.08,26.08,0,0,0,6.48-4,11.88,11.88,0,0,0,3.93-5Z" transform="translate(0 -3.33)"/><path class="cls-2" d="M183.43,482.3q5.7,0,10.7,4.61a39.81,39.81,0,0,1,8.75,12.56,82.92,82.92,0,0,1,5.89,18.64,115.08,115.08,0,0,1,2.16,22.83V728.16a118.2,118.2,0,0,1-2.16,23,82.43,82.43,0,0,1-5.89,18.85,39.69,39.69,0,0,1-8.75,12.56q-5,4.6-10.7,4.61h-16.5q-5.7,0-10.71-4.61a39.67,39.67,0,0,1-8.74-12.56,81.94,81.94,0,0,1-5.89-18.85,118.2,118.2,0,0,1-2.16-23V540.94a115.08,115.08,0,0,1,2.16-22.83,82.41,82.41,0,0,1,5.89-18.64,39.79,39.79,0,0,1,8.74-12.56q5-4.61,10.71-4.61Zm3.73,58.64a13.32,13.32,0,0,0-1.08-5.66c-.72-1.53-1.6-2.3-2.65-2.3h-16.5c-1.05,0-1.93.77-2.65,2.3a13.32,13.32,0,0,0-1.08,5.66V728.16a14.78,14.78,0,0,0,1.08,5.87c.72,1.67,1.6,2.51,2.65,2.51h16.5c1,0,1.93-.84,2.65-2.51a14.78,14.78,0,0,0,1.08-5.87Z" transform="translate(0 -3.33)"/><path class="cls-2" d="M247.94,583.66a105.24,105.24,0,0,0,8.6,17.8q5.19,8.6,11.25,17.8A167.59,167.59,0,0,1,279,639.37a131.24,131.24,0,0,1,8.61,24.71,133.2,133.2,0,0,1,3.42,31.83v32.25a119,119,0,0,1-2.15,23A82.45,82.45,0,0,1,283,770.05a38.71,38.71,0,0,1-8.82,12.56q-5.09,4.6-10.77,4.61H248.17q-5.68,0-10.68-4.61a39.63,39.63,0,0,1-8.71-12.56,82.45,82.45,0,0,1-5.88-18.85,119,119,0,0,1-2.15-23V680.41h29a23.18,23.18,0,0,0-2.51,7.54,121,121,0,0,0-1.75,12.78q-.76,8.16-1,21.57v5.86A14.78,14.78,0,0,0,245.6,734c.72,1.67,1.6,2.51,2.65,2.51h15.32c1.05,0,1.93-.84,2.65-2.51a14.78,14.78,0,0,0,1.08-5.87V702.61a66.49,66.49,0,0,0-3.44-22A104,104,0,0,0,255.22,662Q250,653.19,244,644.39a148.29,148.29,0,0,1-11.2-19.68,132.55,132.55,0,0,1-8.64-24.3Q220.74,587,220.75,569V540.94a115.85,115.85,0,0,1,2.15-22.83,82.93,82.93,0,0,1,5.88-18.64,39.74,39.74,0,0,1,8.71-12.56q5-4.61,10.68-4.61h15.28q5.69,0,10.77,4.61A38.82,38.82,0,0,1,283,499.47a82.93,82.93,0,0,1,5.88,18.64,115.85,115.85,0,0,1,2.15,22.83v47.75H261.89a31.8,31.8,0,0,0,2.6-8.38q1-5,1.81-13.82t1-23.46v-2.09a13.32,13.32,0,0,0-1.08-5.66c-.72-1.53-1.6-2.3-2.65-2.3H248.25c-1.05,0-1.93.77-2.65,2.3a13.32,13.32,0,0,0-1.08,5.66v22.62A57.31,57.31,0,0,0,247.94,583.66Z" transform="translate(0 -3.33)"/><path class="cls-2" d="M352.91,483.71q5.22,0,9.8,4.63a40.14,40.14,0,0,1,8,12.61,89.08,89.08,0,0,1,5.39,18.7,126.19,126.19,0,0,1,2,22.91v182a126,126,0,0,1-2,22.91,89,89,0,0,1-5.39,18.71,40,40,0,0,1-8,12.61c-3,3.09-6.32,4.62-9.8,4.62H307.59a34.74,34.74,0,0,0,2.33-8.4q.9-5.06,1.62-13.88t1.08-23.54V529.53q-.36-14.7-1.08-23.54t-1.62-13.87a35,35,0,0,0-2.33-8.41Zm3.42,58.85a14.43,14.43,0,0,0-1-5.67q-1-2.31-2.43-2.31H334.39v198h18.52q1.44,0,2.43-2.31a14.41,14.41,0,0,0,1-5.68Z" transform="translate(0 -3.33)"/><path class="cls-2" d="M427.37,480.77q5.22,0,9.81,4.62a40.43,40.43,0,0,1,8,12.61,89.33,89.33,0,0,1,5.4,18.71,127.12,127.12,0,0,1,2,22.91V727.53a130.4,130.4,0,0,1-2,23.12,88.5,88.5,0,0,1-5.4,18.92,40.19,40.19,0,0,1-8,12.61q-4.59,4.62-9.81,4.63H412.26q-5.2,0-9.8-4.63a39.84,39.84,0,0,1-8-12.61,87.92,87.92,0,0,1-5.4-18.92,129.44,129.44,0,0,1-2-23.12V539.62a126.19,126.19,0,0,1,2-22.91,88.74,88.74,0,0,1,5.4-18.71,40.07,40.07,0,0,1,8-12.61q4.59-4.62,9.8-4.62Zm3.42,58.85a14.4,14.4,0,0,0-1-5.67c-.66-1.54-1.47-2.32-2.43-2.32H412.26c-1,0-1.77.78-2.42,2.32a14.4,14.4,0,0,0-1,5.67V727.53a16,16,0,0,0,1,5.89c.65,1.68,1.46,2.52,2.42,2.52h15.11q1.44,0,2.43-2.52a16,16,0,0,0,1-5.89Z" transform="translate(0 -3.33)"/><path class="cls-2" d="M486.44,582.5a110.53,110.53,0,0,0,7.88,17.87q4.76,8.63,10.3,17.86a175.27,175.27,0,0,1,10.3,20.18,140.05,140.05,0,0,1,7.88,24.81,145.77,145.77,0,0,1,3.14,31.94v32.37a129.44,129.44,0,0,1-2,23.12,88,88,0,0,1-5.38,18.92,39.07,39.07,0,0,1-8.07,12.61q-4.67,4.62-9.86,4.63h-14q-5.21,0-9.78-4.63a40,40,0,0,1-8-12.61,88,88,0,0,1-5.38-18.92,129.44,129.44,0,0,1-2-23.12V679.61h26.55a24.9,24.9,0,0,0-2.3,7.57q-.89,4.62-1.6,12.82t-.88,21.65v5.88a16,16,0,0,0,1,5.89c.66,1.68,1.46,2.52,2.43,2.52h14q1.44,0,2.43-2.52a16,16,0,0,0,1-5.89V701.89A72.49,72.49,0,0,0,501,679.82a108.31,108.31,0,0,0-7.91-18.71q-4.77-8.82-10.25-17.65a153,153,0,0,1-10.25-19.76,141.76,141.76,0,0,1-7.92-24.38,139.51,139.51,0,0,1-3.15-31.53V539.62a126.19,126.19,0,0,1,2-22.91A88.78,88.78,0,0,1,468.9,498a40.22,40.22,0,0,1,8-12.61q4.58-4.62,9.78-4.62h14q5.19,0,9.86,4.62A39.29,39.29,0,0,1,518.58,498,88.78,88.78,0,0,1,524,516.71a126.19,126.19,0,0,1,2,22.91v47.93H499.21a34,34,0,0,0,2.39-8.41q.91-5,1.65-13.87t.92-23.55v-2.1a14.4,14.4,0,0,0-1-5.67c-.66-1.54-1.47-2.32-2.43-2.32h-14c-1,0-1.77.78-2.43,2.32a14.4,14.4,0,0,0-1,5.67v22.7A62.47,62.47,0,0,0,486.44,582.5Z" transform="translate(0 -3.33)"/><path class="cls-2" d="M643,741.41q1.26,13.46,2.52,21.65t2.34,12.82a53.39,53.39,0,0,0,2.34,7.56H618.74a61.24,61.24,0,0,0,1.44-7.56q.54-4.62.81-12.19t-.27-20.6l-.9-12.61H596.26l-.9,12.61q-.54,13-.36,20.6t.72,12.19a41.5,41.5,0,0,0,1.62,7.56H565.68a53.39,53.39,0,0,0,2.34-7.56q1.08-4.62,2.34-12.82t2.7-21.65l17.62-221.13q.54-11.76.36-18.91T590.32,490a43.83,43.83,0,0,0-1.44-6.73H627a19.73,19.73,0,0,0-1.44,6.31,95.22,95.22,0,0,0-.72,10.3q-.18,6.51.18,17Zm-26.26-58.86L608,549.71l-8.63,132.84Z" transform="translate(0 -3.33)"/><path class="cls-2" d="M751.84,491.28q-.9,4.64-1.62,12.4t-1.08,20.81V742.67q.36,13,1.08,20.81t1.62,12.4a29.25,29.25,0,0,0,2.16,7.56H722.52a29.25,29.25,0,0,0,2.16-7.56q.9-4.62,1.62-12.19t1.08-20.6V613.61L711.19,716.18H693L676.84,613.61V742.67q.36,13,1,20.81a115.1,115.1,0,0,0,1.52,12.4,29.25,29.25,0,0,0,2.16,7.56H650.22a29.72,29.72,0,0,0,2.15-7.56q.9-4.62,1.62-12.19t1.08-20.6V523.65Q654.71,511,654,503.26t-1.62-12.4a23.05,23.05,0,0,0-2.15-7.15l27.52-.42v.42L702,641.36l24.46-158.07,27.52.42A29.35,29.35,0,0,0,751.84,491.28Z" transform="translate(0 -3.33)"/><path class="cls-2" d="M786.55,492.54q-.9,5.9-1.71,16T784,535.42V731.74q0,16.82.81,26.69t1.71,15.77q1.08,6.72,2.52,9.24H757.59a36.81,36.81,0,0,0,2-7.56q.9-4.62,1.62-12.19t1.08-20.6v-219q-.36-13-1.08-20.81t-1.62-12.4a36.75,36.75,0,0,0-2-7.57h31.48C788.11,485,787.27,488.06,786.55,492.54Z" transform="translate(0 -3.33)"/><path class="cls-2" d="M864.79,609.41q-1.44,2.52-2.34,8.4-.9,5.06-1.62,14.51t-.9,24.17v71a129.44,129.44,0,0,1-2,23.12,88,88,0,0,1-5.39,18.92,40,40,0,0,1-8,12.61q-4.57,4.62-9.8,4.63H819.64q-5.21,0-9.8-4.63a39.84,39.84,0,0,1-8-12.61,87.92,87.92,0,0,1-5.4-18.92,129.44,129.44,0,0,1-2-23.12V539.62a126.19,126.19,0,0,1,2-22.91,88.74,88.74,0,0,1,5.4-18.71,40.07,40.07,0,0,1,8-12.61q4.59-4.62,9.8-4.62h15.11q5.22,0,9.8,4.62a40.26,40.26,0,0,1,8,12.61A88.76,88.76,0,0,1,858,516.71a126.19,126.19,0,0,1,2,22.91v34.47H833.31a26.92,26.92,0,0,0,2-6.72A108.64,108.64,0,0,0,836.91,556q.72-7.14,1.08-18.92a12.38,12.38,0,0,0-1.26-3.78c-.6-1.12-1.26-1.69-2-1.69H819.64c-1,0-1.77.78-2.42,2.32a14.4,14.4,0,0,0-1,5.67V727.53a16,16,0,0,0,1,5.89c.65,1.68,1.46,2.52,2.42,2.52h15.11q1.44,0,2.43-2.52a16,16,0,0,0,1-5.89V660.27a19.22,19.22,0,0,0-4.41,2.74,15.62,15.62,0,0,0-2.6,2.73,20.7,20.7,0,0,0-1.62,2.94V609.41Z" transform="translate(0 -3.33)"/><path class="cls-2" d="M910.47,480.77q5.22,0,9.81,4.62a40.43,40.43,0,0,1,8,12.61,89.33,89.33,0,0,1,5.4,18.71,127.12,127.12,0,0,1,2,22.91V727.53a130.4,130.4,0,0,1-2,23.12,88.5,88.5,0,0,1-5.4,18.92,40.19,40.19,0,0,1-8,12.61q-4.59,4.62-9.81,4.63H895.36q-5.21,0-9.8-4.63a39.84,39.84,0,0,1-8-12.61,87.92,87.92,0,0,1-5.4-18.92,129.44,129.44,0,0,1-2-23.12V539.62a126.19,126.19,0,0,1,2-22.91,88.74,88.74,0,0,1,5.4-18.71,40.07,40.07,0,0,1,8-12.61q4.59-4.62,9.8-4.62Zm3.42,58.85a14.4,14.4,0,0,0-1-5.67c-.66-1.54-1.47-2.32-2.43-2.32H895.36c-1,0-1.77.78-2.42,2.32a14.4,14.4,0,0,0-1,5.67V727.53a16,16,0,0,0,1,5.89c.65,1.68,1.46,2.52,2.42,2.52h15.11q1.44,0,2.43-2.52a16,16,0,0,0,1-5.89Z" transform="translate(0 -3.33)"/><path class="cls-2" d="M969.54,582.5a110.53,110.53,0,0,0,7.88,17.87q4.76,8.63,10.3,17.86A173.69,173.69,0,0,1,998,638.41a139.23,139.23,0,0,1,7.88,24.81,145.77,145.77,0,0,1,3.14,31.94v32.37a129.44,129.44,0,0,1-2,23.12,88,88,0,0,1-5.38,18.92,39.07,39.07,0,0,1-8.07,12.61q-4.67,4.62-9.86,4.63h-14q-5.21,0-9.78-4.63a40,40,0,0,1-8-12.61,88,88,0,0,1-5.38-18.92,129.46,129.46,0,0,1-2-23.12V679.61h26.54a24.9,24.9,0,0,0-2.3,7.57q-.89,4.62-1.6,12.82t-.88,21.65v5.88a16,16,0,0,0,1,5.89q1,2.52,2.43,2.52h14c.95,0,1.76-.84,2.42-2.52a16,16,0,0,0,1-5.89V701.89a72.81,72.81,0,0,0-3.14-22.07,109.13,109.13,0,0,0-7.92-18.71q-4.77-8.82-10.25-17.65a153,153,0,0,1-10.25-19.76,141.76,141.76,0,0,1-7.92-24.38,139.56,139.56,0,0,1-3.14-31.53V539.62a126.22,126.22,0,0,1,2-22.91A88.78,88.78,0,0,1,952,498a40.22,40.22,0,0,1,8-12.61q4.57-4.62,9.78-4.62h14q5.19,0,9.86,4.62a39.29,39.29,0,0,1,8.07,12.61,88.78,88.78,0,0,1,5.38,18.71,126.19,126.19,0,0,1,2,22.91v47.93H982.31a33.56,33.56,0,0,0,2.39-8.41c.61-3.36,1.17-8,1.65-13.87s.8-13.73.92-23.55v-2.1a14.4,14.4,0,0,0-1-5.67c-.66-1.54-1.47-2.32-2.42-2.32h-14c-1,0-1.77.78-2.43,2.32a14.4,14.4,0,0,0-1,5.67v22.7A62.47,62.47,0,0,0,969.54,582.5Z" transform="translate(0 -3.33)"/></svg>