<svg id="Capa_1" data-name="Capa 1" xmlns="http://www.w3.org/2000/svg" viewBox="0 0 1080 1080"><defs><style>.cls-1{fill:#fff;}.cls-2{fill:#be1622;}.cls-3{fill:#f0efee;}.cls-4{fill:#fcfaf9;}.cls-5{fill:#c91923;}</style></defs><rect class="cls-1" width="1080" height="1080" rx="181.52"/><polygon class="cls-1" points="132.06 481.8 101.21 467.71 45.47 525.74 29.97 598.52 23.77 669.75 37.18 719.16 44.44 765.65 43.4 816.28 50.64 864.9 61.46 876.11 83.22 816.28 115.57 784.51 166.44 771.16 191.4 753.61 191.4 697.82 180.82 630.3 167.35 540.92 132.06 481.8"/><polygon class="cls-1" points="904.68 241.69 849.74 117.31 778.89 90.06 736.83 90.06 711.52 103.28 716.51 139.38 706.11 160.56 691.13 195.01 671.61 238.57 656.16 247.85 671.61 272.91 676.38 310.93 671.61 339.01 665.78 369.26 706.11 385.28 719.64 411.22 685.34 421.17 608.36 433.63 591.45 447.34 608.36 525.74 626.74 552.4 656.16 594.58 671.61 604.23 562.41 630.3 559.92 699.54 587.18 759.34 599.85 807.36 706.11 777.91 829.9 743.44 893.79 639.72 952.9 500.83 966.68 467.71 907.78 422.88 868.72 405.25 858 354.44 885.05 293.72 904.68 241.69"/><polygon class="cls-1" points="224.81 117.31 342.64 85.65 374.09 101.48 374.09 154.84 382.89 170.46 403.34 219.06 421.43 247.85 414.91 273.94 412.93 310.93 415.87 363.57 374.09 390.79 394.94 421.83 453.47 438.39 433.94 520.97 342.64 641.05 302.63 719.16 229.93 756.59 151.41 524.88 124.97 466.02 210.45 403.99 229.52 363.57 210.45 255.54 203.11 203.72 207.38 139.38 224.81 117.31"/><path class="cls-2" d="M1070.12,671.68c3.31-27.83,2.39-55.41-1-83.4-5-40.9-19.1-75.77-48.11-103.51-19.07-18.24-42.27-29.24-64.14-42.54-16.78-10.2-34.28-19-51.23-28.92C884,400.66,870,383,872.61,354.49c1-11.14,5.46-20.43,13.52-26.66,23.12-17.89,37-41.63,41.35-71.51,9.35-63.53-22.68-123.73-75.8-150.62-14.31-7.25-29.22-11.81-45.06-12.61-20.44-1-39.42-12.19-60.35-9.88-6,.7-12-1-18,1-26.37,8.83-37.37,38.15-23.75,64.15,1.52,2.91,1.53,4.43-.62,6.87q-8.82,10-17.07,20.5c-6,7.62-8.3,16.46-5.88,26.22.88,3.55.45,6.17-2,8.78-9.87,10.72-18.36,22.81-29,32.75-8.32,7.75-9.05,22.49.19,28.81,10.19,7,12,17,13.48,27.72,1.19,8.45,5.29,17.11-.11,25.44-4,6.1-5.31,12.52-3.19,19.59.69,2.28-.76,3.32-1.56,4.93-9.15,18.3-5.83,31.07,10.68,42.2,6.36,4.29,13.43,5.82,20.75,6.31,3.13.21,5.22.68,5.3,4.91.08,4-1.52,4.68-4.81,5.28-32,5.81-63.87,11.9-95.81,17.85-7,1.31-9.94-1.63-7.63-8.6,2.72-8.22-3.84-12.7-5.49-19.08-2.87-11.14-10.17-6.73-16.4-5.23-16.06,3.9-31.27,9.07-48.49,1.48s-14.76-5.93-21.85,9.56c-1.1,2.4-2.7,4.55-3.92,6.91-.83,1.62-1.59,3.27-1.05,5.35,2.56,10,1.8,11.06-7.87,9.17-29.28-5.71-58.52-11.67-87.8-17.39-3.09-.61-5.05-1.29-5.14-5.3-.1-4.57,2.62-4.4,5.45-4.66,10.11-.94,19.06-5.11,26.92-11.8s13.16-16.62,8.5-26.2c-6.37-13.08.44-29.64-10.93-40.71a1.91,1.91,0,0,1-.24-1.54c4.26-15.6-1.4-34.65,15.91-45.8,7.92-5.1,8.23-14.1,4.56-21.14-6.06-11.62-15.56-20-23.74-29.58-6.27-7.37-13.74-13.95-11-26.15,1.42-6.39-1.37-12.65-4.83-18.22-4.74-7.65-10.92-14-16.57-20.77-2.59-3.13-3.35-5.64-.93-9.87,7.65-13.35,7.41-27.07-.46-40.37C369,84.92,349,80.24,327.09,80.82c-10.15.27-19.91,3.36-29.23,7.73a56,56,0,0,1-19.71,5.11c-9.28.72-18.58,1.61-27.59,4.52-55.76,18-94.56,74.31-93.92,136.73.4,38.63,13,70.87,43.75,93.49,7.18,5.27,10.85,13.94,12.49,22.39,4.22,21.63-8,48.43-26.48,58.94-33,18.8-66.58,36.33-98.39,57.55-23.94,16-43.9,35.25-56.35,62.46-12.62,27.6-17.4,57.32-18.37,87.65-1.48,46.78,3.61,92.49,22.42,135.53A11.81,11.81,0,0,1,37,759.11c-2.83,26.29-2.37,52.72-3,79.11-.61,25.42,8.21,45.6,27.69,60.26,3.31,2.49,4.51,5,2.31,8.67-2.45,4.07-1,6.87,2,9.63,2.67,2.45,5.07,5.23,7.61,7.85,17.43,18,34.1,37.11,55.63,49.57,26.33,15.24,16.91,14.92,44.09,2.56,7.86-3.57,15.51-8.36,22.61-12.4,11.12-6.32,11.12-6.32,17.58-9.63,5.29-2.7,3.18-3.26,6.47-3.28.48-1.12,7.44-5.18,8.51-6.08,4.58-3.84,3.38-2.71,8.59-6,6.24-4,10.62-9.06,17.35-15.05,6.21-5.55,13.41-9.74,19.58-15.35,6-5.42,11.16-11.71,17.1-17.18,23.13-21.28,43-40.07,64-65.66.9-1.1,6.45-6.89,13.43-15.43,3.27-5.22,5.57-6.73,8.07-11.24C408.55,829.8,442.39,844.7,483.25,831a.77.77,0,0,1,1.14-.47c2.32-1.57,3.65-4,4.76-6.55,2.47-21.52,10.13-41.52,16.24-62,3.6-12,9.07-23.51,11.85-35.71C521,709.94,527,694.19,530,677.87c1.88-10.32,2.57-21.44,3.34-32.24a20.1,20.1,0,0,0-3.55-13c-3.5-5-2.89-9.6-1.29-15.07a251.08,251.08,0,0,0,6-25.82c2.65-14.73-.76-28.4-8.14-40.85-1.8-3-2.82-6-2-9,7-24.9,10-50.73,15.5-76.15,5.17,24.43,10.27,48.68,15.44,72.91.8,3.73,1.6,7.54-.22,11-10.66,20.27-9.66,41.25-3.43,62.5,2.44,8.31,4.78,16.23-.31,24.61-2.5,4.11-2.14,9.57-1.25,14.26,3.25,17.26,5.93,34.58,9.83,51.78,8.3,36.63,21.86,71.5,29.56,108.22,2.43,4.73,2.45,10.11,3.59,15.18.22.67.46,1.31.71,1.92,18,9.93,36.81,9.38,55.84,5a105.77,105.77,0,0,0,52.71-29.79,36.8,36.8,0,0,1,3.15-2.46c4.54,6.15,0,0,8.93,13.59,19.6,19.35,13.55,14.86,15,16.14,19.31,17.62,20.52,20.93,36.81,36.63,16.78,16.17,27.65,25.82,45.09,41.14,6.77,5,8.59,6.44,11.94,9.76,16.86,16.69,36.4,28.83,57.61,38.07,1.84.8,4.66,1.57,5.14,3.05,2.42,7.59,9.13,8.27,14.5,11.08,6.92,3.62,14.9,5.67,21,9.89,8.27,5.68,14.55,3.54,21.94,0,30.48-14.57,53.24-39.42,75.91-64.45,2.49-2.74,3.07-5.79,1.59-8.8-2.19-4.48-.46-6.7,2.89-9.22,20-15.08,28.31-36.1,28-61.91-.31-24.82-1.68-49.55-3.42-74.27-.31-4.38-.09-8.44,1.82-12.53C1061.6,724.74,1066.93,698.49,1070.12,671.68ZM500.45,450.13c.46-1.74,1.38-5.31,4.55-2.82,2.42,1.9,8.43-.09,6.09,7.15-4.76,14.7-9,29.6-13.38,44.41-3.36,11.25-6.33,22.64-10.19,33.69-2.2,6.29,2.09,9.28,5,15.06-11.27-5.87-15.22-2.07-14.83,9.55.08,2.53-2.74,6.08-5.1,7.62-10.56,6.9-13.31,18.65-16.3,29.86-2,7.37-5.66,14.42-5.19,22.43.16,2.83-1.47,2.73-3.33,3-15.09,2.17-16.18,1.43-12.5-13.92,3.52-14.69,4.37-30.48,14-43,3.24-4.22,6.52-8.6,11.07-10.79,7.2-3.46,10.29-9.74,12.6-17C482,506.88,493,479.16,500.45,450.13ZM395.38,500.25c9.06,3.85,18.49,6.72,29.2,10.5-8.85-25.74-19-49.29-26.69-74.36,9.87-.62,18.47,3.77,27.55,5.08,15.94,2.3,31.63,6.51,47.47,9.69,5.33,1.07,7.46,2.35,5,9.11-7.94,21.52-15,43.38-22.4,65.14a13.8,13.8,0,0,1-6.17,7.82C433.25,542.75,424.44,558,420,576.38c-.9,3.72-2.72,5.84-5.41,8.14C404.12,593.45,394,602.76,383.78,612c-3.88,3.49-5.31,8.36-6.57,13.36-1.29,5.15-1.44,10.64-4.26,15.34-.78,1.3.5,4.39-2.47,3.6-1.31-.34-2.15-1.93-2.36-3.78-2.49-21.49-8.62-42.13-13.43-63.07-.87-3.8-1.08-6.78,1.35-10.28,3.49-5,5.7-11.12,4.46-17.49-1.33-6.76.88-11.54,4.75-16.66,7.28-9.64,13.93-19.81,20.64-29.92C388.5,499.13,390.94,498.37,395.38,500.25Zm20.49,109.62c0,1-.37,1-.91.62ZM389.22,476.56c1.38,4,.07,6.21-3.8,3.82-8.24-5.09-13.08-1.5-17.8,6-7,11.17-14.82,21.78-22.33,32.59-2.08,3-4.17,6.11-9.26,5.14,11.17-29.91,30.11-55.66,39.09-87.32C379.83,450.05,384.6,463.27,389.22,476.56ZM287.06,126.23c10.8-29.32,45-34.71,67-19.1-3.7,4.92-8.45,6.24-14.07,5.52-19.17-2.49-37.14.09-52.24,14.43l-1.41,1.62C285.55,127.61,286.4,127,287.06,126.23Zm55.58,14.54c-12,5-23.29-1.12-34.88-2.75C319.62,135.88,331,140,342.64,140.77Zm-57.25-12,.76.06c-.26.2-.53.39-.8.58C285.36,129.21,285.38,129,285.39,128.78ZM230.6,273.58c4.32-15.61,24-19.68,35.75-6.72,8.55,9.43,15.95,20.05,23.86,30.13a.63.63,0,0,1,.81.53l2.7-.47c6.82-6.67,5.74-13.71,2.13-22-3-6.92-4.3-14.74-6-22.26-1.79-7.8.49-14.88,4.67-21.2,6.91-10.45,8.48-21.46,3.79-33.35q-3.57-5.62-7.13-11.26l-.4-.42a9.3,9.3,0,0,1-4.18-4.5c-.46,0-.7-.27-.72-.76h-.48v-.52a.69.69,0,0,1-.74-.71c-3.2-2-3.37-3.92.05-5.83l0-.43.4,0,1-1.06.36-.3a62.33,62.33,0,0,1,14.94-11.08c4-3.93,8.49-2.29,12.82-1,11.32,3.3,22.66,2.89,34.05.55,10.63-4.22,10.78-4.17,15.4,4.92a3.2,3.2,0,0,1,1.31.35c5.34,5.86,10.33,12.13,16.13,17.42,4.23,3.87,5.65,8.2,4.68,13.52-1.59,8.71,1.44,15.73,6.13,22.43,7.54,10.81,16,20.76,24.44,30.77,7.28,8.66,7,10.11-2.77,14.14-3,1.25-6.07,2.55-9.1,3.82l-2,1.33-.27.66-.7,0-2.89,1c-1.57,2.12-4.1,2.11-6.16,3.14,1.57,3.41,4.71,3.76,7.66,4.35s6.42.21,6.54,4.89c.12,4.32-1.89,7.12-5.7,8.44-7.19,2.47-14.34,5.13-21.61,7.31-7.06,2.12-14.36,2.64-22.82,2.12,6.83,15.44,14.55,28.63,30.67,32.24,4.64,1,9.84-.69,14.77-1.2,4.31-.44,6,1.46,5.23,6.1-1.16,6.85.57,13.21,2.94,19.54,3.65,9.78,1.19,14.29-8.86,16.48-18,3.92-36.13,3.29-54.22.65-9.23-1.34-18.41-3-27.61-4.49-2.08-.06-4.41,1.5-6.08-1.1l-.34.34-.39-.28c2.38,6.69,8.12,9.89,13.08,13.65a91.06,91.06,0,0,0,15.14,8.93c12.39,6,12.5,5.9,11.7,20.69-1,19.27-3.55,38.17-13.4,55-2.35,9.21-7.93,16.49-12.36,24.78-12-19.26-31.23-28-47.45-40.66-12.73-10-26.33-18.78-35.76-32.8-2.05-1.46-.55-4.13-1.8-5.88-9.72-13.6-7.37-27.28-1.81-42.09,4.35-11.57,6.27-24.23,8.78-36.52.86-4.25,2.76-4.55,5.77-3.6a32.72,32.72,0,0,0,17.87.73c4-4.22,8.92-7.58,10.59-13.81-10.11.52-20.39,3.68-30.09-2.13a8.1,8.1,0,0,1-1.51-1.62c-1,.19-1.53-.38-1.62-1.43C236.79,307.87,226.81,287.3,230.6,273.58Zm170.5,38.31c-4.63,4.13-20.73,2.55-27-2.87,8.24-2.44,15.68-4.82,23.23-6.75,2-.51,5.11-3.85,6.36.2A9.45,9.45,0,0,1,401.1,311.89ZM136.67,469c11.47-6.68,22.39-14.43,34.3-20.28.14-.22.23-.54.42-.66,15.89-9.51,10.76-10.9,23.57,3.3,5.58,6.18,10.42,13.12,15.6,19.72l1.1-1.76c-1.57-1.06-1.21-2.68-1.08-4.23l-.45-2.77A29.52,29.52,0,0,1,207.42,449c-.11-.9-.23-1.79-.34-2.69a64.51,64.51,0,0,1-2.72-22c.32-7.48,7.5-9.9,11.06-17,4.12,12,9.93,21.22,16.07,30.21l.31.46c19.81,23,45.35,38.07,68.73,56.12A92.84,92.84,0,0,1,321.69,517c1.27,1.93,3.4,4.64,1.23,7-3,3.29-4.27-1.11-6-2.35q-24.12-17.41-48-35.23c-2.63-2-4.12-1.58-6.48.46q-15,13-30.34,25.41c-2.82,2.27-3,3.87-1.27,7.2,8.84,17,8.81,17.23,21.57,4.69,3.15-3.09,5.71-3.75,9.2-1,3,2.38,6.26,4.38,9.4,6.55,12.74,7,25.42,14.19,38.28,20.94,3.13,1.65,3.52,4.25,4,7.07,1.31,7.34,3.92,14,9.47,18.74,2.23,1.93,2.84,4.08,2.75,7q-1.61,50.84-3.09,101.68c.34,5.41,1.47,11.24-5.92,12.48l-6.63,3.69a43.5,43.5,0,0,1-14.52,8l-.22.16c0,.94-.52,1.19-1.31.93-13.68,7.42-27,15.63-41.36,21.58-9.24,4.07-18.52,8.06-27.72,12.25-3.38,1.54-4.64,1.12-5.23-3.23-2.73-20-6-39.92-8.77-59.91-1.23-8.87-4-17.54-3.26-26.69C204,638.23,200.84,622,197,605.89c-9-37.08-20.13-73.24-41.35-104.85a195,195,0,0,0-19.83-24.31C132.58,473.33,132.65,471.38,136.67,469Zm-74,385.12c-11.54-25.94,1-75.59,41.26-101.82l1.75-1.15,1.46-1.5-1.23-1.62-4.66,1.54-2.81,1L74.14,762.67l-.34.26L61.46,774.49c.43-19.33.67-37.46,3.26-55.44.19-1.07.39-2.14.58-3.21-.14-1.73-.6-3.53,1-4.86v-.13a306.79,306.79,0,0,1,7.57-48.48c-.3-6.74,2.77-12.89,3.57-20.89-15.7,17.73-27,36.49-31.82,61-6.29-13.45-5.82-26.38-6.91-38.77-3.5-40-1.56-79.52,12.88-117.39,5.4-14.18,13.8-26.06,23.9-36.86a118.48,118.48,0,0,1,16.92-15c5-3.68,8-3,12.42.61,17.43,14.24,30.22,32.12,39,53.55,10.12,24.77,17.16,50.51,22.15,76.94.58,3,1.89,6.18.52,9.4-10-3.73-19.64-8.48-32.41-11.59,17.21,20.62,31.17,40.77,39.58,67-11.95-5.47-21.71-11.7-32.91-12.45,0,4.15,4.49,5.49,6.22,8.94,4.42,3.07,7.46,7.59,10.87,11.71.38.47.75.94,1.12,1.42l1,1.18.57,1.57c3.7,1.52,5.64,4.84,7.43,8.3l.05.08a54,54,0,0,1,4,4.7,4.51,4.51,0,0,1-.06,5.26c-1.24,1.77-3,1.62-4.8,1l-14.27-4.73-3.07-.21c-1.65.22-3.33.66-4.65-1l0,.07a10.93,10.93,0,0,1-8.42-1.23l-1.92.58-3,.41,0,0c.14.43.26.88.36,1.33,1.48,0,3-.2,4,1.44a5.48,5.48,0,0,1,4.88,1.73.93.93,0,0,1,1.23.38,70.73,70.73,0,0,1,23,12.6c1.22.12,2.39.33,2.93,1.74l2.5,1.74.31.19a59.83,59.83,0,0,1,20.49,19.75C127.53,759.12,79.59,783.71,62.63,854.15Zm104.72-218.7-.79.54-.06-1ZM152.16,951.36c-1.86,1.54-4.33.53-6.13-1.24-15.67-15.46-28.18-33-30.93-56.42-2.11-18-2.77-36,.36-54-18.31,24.59-20.44,52.58-15,82-19-14.69-24.17-50.11-12-83C102,802,131.61,780.52,163.26,784.46c.12,1.91-1.33,2.77-2.4,3.74-26.33,23.68-35.32,54.84-33.26,90.23,1.45,24.84,7.48,48.25,23.65,67.41C152.66,947.52,154.13,949.72,152.16,951.36ZM446.58,809.5c-14.34-1.24-27.14-7.65-39.72-14.53-1.64-.9-4.15-2-3.38-4.51.6-2,3-1.48,4.73-1.66,3-.32,6-.4,9-.83,3.54-.52,6.21-1,6.48,4.62.18,3.85,4.53,4.75,7.47,5.85,10.58,4,21.08,8.26,33.22,10.69C457.85,812.11,452.13,810,446.58,809.5Zm66-144.16c-1.93,4.29-6.47.6-9.5-.31a124,124,0,0,1-18.41-7.27c-7.34-3.58-14.73-5.54-22.73-3.64-6.89,1.64-14,1.6-21.14,3.77,10.13,3.79,20.26,7.56,30.37,11.38,8.07,3.06,16,6.45,24.2,9.19,6.39,2.15,7.64,6.95,5.74,12.53s-8.09,4.77-11.05,3.23c-8.28-4.33-17.57-2.51-25.71-6.13a53.41,53.41,0,0,0-19.52-4.59c-1.35-.07-3.38-.88-3.93,1.14-.7,2.56,1.59,2.93,3.16,3.61,13.94,6.09,28.34,10.7,42.64,15.67,5.5,1.91,13.6,3,11.26,11.86-2.19,8.33-9.47,3.55-14.31,2.92-12.48-1.64-24.84-4.3-37.29-6.29-1.69-.27-4.65-3-5.39,1.32-.53,3.06.78,4.87,3.8,5.81,10.63,3.32,21.19,6.91,31.76,10.43,2.64.88,5.27,1.83,7.85,2.91a7.36,7.36,0,0,1,4.89,8.12c-.51,4.9-4.45,3.69-7.09,3.81-13.16.6-26.18-1.1-39-4-3.77-.84-6.88-.84-9.22,2.83-3.28,8-9.48,12.65-16.89,15.06-13.21,4.3-26.43,9.46-40.66,5.51-3.65-1-5.65,1.83-7.69,4-12.56,13.64-24.81,27.6-37.54,41-30.9,32.64-59.92,67.43-95,95.34A109.63,109.63,0,0,1,170.1,929c-4.17.14-6.72-1.38-8.32-5.3-1.4-3.44-2.87-6.85-4.3-10.27-17.75-40.28-15.28-95.67,39.58-125.13,32.63-17.53,66.82-31.41,99.18-49.54,20.74-11.62,41.56-23,62.13-35,17.31-10.08,27.62-25.29,33.13-44.92.57-2,1.47-3.93,2.21-5.9,0-2.55.22-5,1.74-7.18l.42-2.74c-2.05-16.39,9.43-23.77,18.95-32.45.84,6.69-4.32,10.1-7.23,14.75l-1.49,1.72c.06,3.35-2.32,7.09,1.38,9.85,7.11-.73,13.94-3.48,21.18-3.27q19.17-2,38.36-4c2.62-.28,4.87.78,7.17,1.9,9.61,4.71,19.29,9.23,28.85,14a26.08,26.08,0,0,1,7.5,5.33A13.4,13.4,0,0,1,512.6,665.34Zm9.84-244.78c-1,9.12-3.7,14.2-8.29,13.89-2.07-.92-7-.2-5.5-4.7,1.79-5.35,1.15-13,7.7-15C518.36,414.08,523.05,415.08,522.44,420.56Zm358.13,17.38c-2.23,7.82-1.82,16.42-4.31,24.34-.33,1.05-.7,2.23.5,2.74,2,.85,3.29-.31,4.41-2,4.5-6.74,9.81-12.75,14.71-19.11,2.67-3.48,4.71-3.25,7.52-1.59,15.66,9.21,31.24,18.56,46.94,27.69,3.9,2.27,2.78,4.25.39,6.64C920,507.4,904.56,547.33,893,589.11c-5.77,20.79-9,42.39-13.35,63.62-4.34,28.93-8.9,57.83-12.84,86.82-.89,6.52-3,6.52-7.63,4.5-7.68-3.34-15.51-6.3-22.78-10.63l-3.24-.93-.61.22-.3-.64a542.73,542.73,0,0,1-66.4-34.56c-2.44-1.48-3.42-3.16-3.49-6.21q-1.26-54.15-2.82-108.3c-.08-2.94.4-5.24,2.7-7,5.75-4.4,8-11,9.16-18,.7-4.25,2.65-6.44,6-8.42,15.65-9.28,32.26-16.67,47.13-27.42,2.75-2,4.43-1.31,6.49.82,2.9,3,6.33,5.47,8.9,8.73,4.23,5.39,6.51,2.8,8.68-1.76.68-1.44,1.24-2.94,1.94-4.38,5.42-11.2,5.41-11.18-4.17-19.29-5.9-5-11.75-10.06-17.63-15.09-6.84-8.15-12.82-5.58-20,.42-13.28,11.08-27.31,21.14-41.08,31.55-3,2.27-5.8,5.3-11.22,4.65,7.16-12,14.75-22.66,25-30.71C798,484.05,815,471.52,831.77,458.76c6.53-7.06,13.88-13.18,20.09-20.65a103.76,103.76,0,0,0,16.86-29.53C877.92,416.44,884.45,424.39,880.57,437.94ZM814.14,142.72c11.14,6.62,23.44,9.38,35.6,15.72-38-3.14-69.19-26.05-105.2-35.67,9.52-3.33,18.1-2.39,26.66.41A215.57,215.57,0,0,1,814.14,142.72ZM742.57,98.19c12.06-1.06,23.06,2.14,33.8,8.58,8.4,5,16.24,10.54,23.3,18-8.85-.16-16.75-4.32-24.45-7.87-12.21-5.62-24.64-5.35-37-4.05-8.11.85-14.37,6.81-17.88,16.11C716.77,112.12,726.07,99.63,742.57,98.19ZM695.24,376.83a72.34,72.34,0,0,1-12.7-1.86c-8.34-1.78-11.2-7-7.7-15.72,3.29-8.19,4.39-16.28,1.85-25.87,25.45,4.95,41.72-6.75,52.13-31.43-13,0-24.67-4-36.54-6.95-4.46-1.13-7.84-3.92-11.74-5.85-2.29-1.14-1.83-4.18-1.75-6.59.09-3,2.22-3.07,4.25-3.45,2.71-.52,5.4-1.22,8.09-1.84l1.19-1-.05-.43.39-.13c-.83-3.34-4.56-2.24-6.08-4.54l-.29-.17c-6.53-2.54-12.3-6.82-19-9-5.1-1.65-3.9-5.36-1.09-8.61,4.73-5.49,9.58-10.88,14.38-16.31l1.4-1.63c3.83-5.33,7.39-10.9,11.55-15.9,4.55-5.49,6.8-11.67,6.21-18.8-.72-8.81.59-16.36,7.88-22,3.4-2.63,6-6.44,8.95-9.72,4.8-8.31,11.21-13,20.93-11.91a56.12,56.12,0,0,0,14.27-.72c12.32-1.79,22.55,2.87,31.78,11,5,2.89,9.87,6,14.94,8.62,4.65,2.43,4.22,4.8.71,8-2.41,2.22-4.45,4.91-6.65,7.39l-.15.36c.07,1-.29,1.58-1.23,1.73v0c-3.43,8.87-7.84,17.41-5.22,27.75a26.49,26.49,0,0,0,3.71,8.6c7.91,11.39,7.36,23.4,3,35.84-2.5,7.24-5.1,14.44-7.65,21.66.41,1.37.83,2.73,1.25,4.1l1.88,2.05v-.05c3.56,5.17,6.56,4.52,10.14-.37,5.83-7.95,12.16-15.48,18.26-23.2a31.1,31.1,0,0,1,12.05-9.29c9.45-4.16,17.93-4.87,21.2,3.71,3.13,8.19,7.42,13.62,5.23,22.14-5.69,22.19-26.54,36.21-48.19,32-5.58-1.09-2.76,2.12-2.37,4.27l.25.35c6.46,9.13,14.64,12.35,25,8.49,3-1.13,4.79-.59,5.73,3.56,4.11,18.21,8.38,36.39,15,53.8a10.53,10.53,0,0,1-.4,9.13c-3.36,6.87-6.1,14.1-9.1,21.18-1.19,6.42-6.34,9.45-10.37,13.23-17.46,16.36-37.71,28.61-56.46,43.08-6.24,4.81-11,10.93-15.92,17.49-4.13-7.32-8.76-14-11.27-22-11-22-12.84-45.94-13.81-70.16-.15-3.74,1.82-4.24,4.26-5.32,11.29-5,22.41-10.38,31.54-19.35,1.12-1.09,3.59-2.19,2-4.35-.69-.93-2.75-.7-4.19-1-10.91,1.45-21.6,4.64-32.37,6.17C721.58,378.85,708.31,377.25,695.24,376.83ZM679.8,301.67c1.28-1.6,3.61-1.49,5.68-.76,4.25,1.51,8.5,3,12.82,4.31,4.1,1.2,8.28,2.1,13.32,3.35-10.71,8.33-25.67,7.2-30.7-1.27C679.76,305.35,678.38,303.45,679.8,301.67Zm29.87,135.76,1.86-.47c6.67,31.56,27.71,56.28,35.68,87.34-5.24-2.75-8.68-7.18-11.82-11.82-6.51-9.6-13-19.19-19.12-29.11-3-4.95-6-7.12-11.52-4.52-2.63,1.24-5.75,1.3-10,2.19C699.93,465.81,704.8,451.62,709.67,437.43ZM606,451.34c4.74-.57,9.43-1.58,14.14-2.39l68.08-13.44c-8.33,21.35-14.35,42-23,61.65l-4.65,13.68c10.71-4,20.41-7.34,29.89-11.28,3.75-1.56,5.65-1,7.94,2.58,8.14,12.58,16,25.46,25.92,36.57,2.34,2.62,1.53,5.52,1.3,8.32-.67,8,0,15.54,4.76,22.14a5.86,5.86,0,0,1,1.28,5.2q-4.41,16.59-8.81,33.19a204,204,0,0,1-6.16,30.05l-.07.63c.69,4.64-1.53,8.68-2.12,14.75-6.19-13.41-6.88-27.15-12.89-38.81l-.16-.2a4.83,4.83,0,0,1-2.8-3.2c-11.75-8-22-18-32.56-27.74-2.27-2.1-3.1-4.89-3.8-7.7-4.7-18.85-14.34-33.57-30.89-42.63-3.34-1.84-5.24-5-6.48-8.6-7.46-21.94-14.8-43.94-22.41-65.83C600.92,453.93,601.35,451.88,606,451.34Zm60.68,159.28h-.85c.1-.31.2-.62.29-.94Zm-19.91,9.43c-4.77-4-5.58-9.9-7.17-15.3-4.25-14.48-6.48-30-18.33-40.49-.9-.8-1.47-1.74-.67-2.59,1.35-1.44,2.84-.69,3.91.57,3.89,4.55,9,8.26,11.26,14A178.41,178.41,0,0,1,646.72,620.05ZM555.22,435.8c-3.64.75-6.33-5.26-6.25-13.19,1.09-2.62,1.23-6.23,5.42-6,3.25.15,8.2,8.78,8,14.48C562.24,436.23,557.87,435.26,555.22,435.8Zm21.19,108.52c-3.62-17-7.69-33.8-11.86-50.63-3.09-12.52-5.77-25.3-8.22-38.06-.43-2.28-.88-4.6,2.11-4.77,3.33-.18,6.8-1.2,8.15,4.38,4.14,17.12,8.76,34.11,13.31,51.11,3.15,11.77,5.41,23.74,10.06,35.15,1.9,4.67.17,12.09-1.93,17.35-7,17.47-3.14,34.14,1.55,51,3.11,11.21,2.93,11.16-7.37,14.71-2.71.94-4.31.72-5.05-2.48-3-13-6.11-26-8.82-37.54.93-8.93,2.41-16.15,5.83-22.42C577.38,556.28,577.73,550.52,576.41,544.32Zm41.71,266.95c-2.81.05-3.84-1.88-4.58-4.42-2.82-9.63-5.95-19.17-8.55-28.86-.83-3.09-.52-7.06,4-6.67,3.62.31,8.59-6.72,10.85,2.2,1.91,7.51,4.74,14.78,6.3,22.36,1.51,7.33,5.11,8.92,11.36,7.17,9-2.5,18.07-4.54,27-7.12a11.17,11.17,0,0,1,7.11-.2C655.12,809,636.82,810.93,618.12,811.27ZM908.83,928.48c-31-1.86-55.09-18.27-77.48-39.49-39.26-37.23-77-76.1-112.49-117.4-6.46-7.53-13.1-6.09-20.74-6.42-18.14-.81-36.21-2.76-47.39-21.48-2.68-3-5.83-3.4-9.59-2.74-13.2,2.33-26.43,4.56-39.88,3.78-3.3-.2-7.73.94-8.53-4.22s3.14-7.1,6.67-8.25c12.26-4,24.64-7.58,37-11.35,1.69-.51,3.34-1.17,5-1.76,2.38-.85,2.88-2.83,2.58-5.16-.45-3.65-2.93-2.07-4.65-1.79-14.46,2.31-28.89,4.79-43.35,7-4.11.64-9.39,2.3-10.44-4.2-.93-5.71,3.14-8.59,7.85-10.13,15.56-5.09,31.28-9.7,46.34-16.41,1.76-.78,4.68-1,4.08-3.76-.63-3-3.45-1.47-5.18-1.28-15.59,1.66-30.57,6.72-46,9.56-3.71.68-8.7,4.2-10.59-2.83s1.06-11.14,7.29-13c18.63-5.55,36.1-15,55.27-18.76.36-.07.61-.74,1.42-1.79-19.18-2.06-37.92-7.06-55.81,4.33a41.93,41.93,0,0,1-11.18,4.75c-2.88.81-7.35,5-8.66-1-1.19-5.35-3-12.51,3.36-15.91,12.13-6.45,24.58-12.2,37-18.05,3.56-1.68,7.63-1.3,11.2-.41,11.29,2.8,23-.09,34.21,3.45,3.68.51,7.35,1,11,1.53,2.37.31,5.31,1.92,6.72-1.12,1.35-2.88.75-6.14-.7-9.17-2.26-4.69-6.75-8.26-6.44-14.26l13.58,12.69.18.14a7.41,7.41,0,0,1,4.81,3.12c3.41,9.74,3.57,20.21,6.3,30.19,6,21.82,17.27,38,36.5,48.77,28.49,16,56.9,32,86,46.76C843.4,767.3,874,779.3,901.27,798.59c43.6,30.87,43.38,83.24,26.26,116.32C922.81,929.32,921.91,929.26,908.83,928.48Zm77.46-8.05c5.33-30.88.23-58.58-17.7-83,3.93,22.18,4.5,44.26-.29,66.26-5.14,23.62-18.69,39.68-39.58,49.06,22.75-23.67,29.76-53.71,29.54-86-.22-33.21-12.16-61.17-38.13-81.92,25.79-6.23,58.15,13.78,72.74,43.93C1008.72,861.55,1006.13,901.53,986.29,920.43Zm55.84-223.8c-.25,1.29-.75,2.51-1.62,5.32-6.08-24.05-17-43.55-33.61-62.05,10.71,44.68,15.85,88.24,17.17,134.19a101.3,101.3,0,0,0-49.74-27.55A147.61,147.61,0,0,1,1010,781.66c8,11.18,14.37,23.12,14.29,37.8,5.61,10.78,2.15,21.95,1.14,33-.21,2.33-1.14,4.59-2.24,8.76-2-9.06-3.62-16.41-5.25-23.77-4.32-11.92-9.39-23.38-17-33.41-20-26.27-46.36-39.91-77.32-44.33-9.41-1.34-18.86-2.26-29.75-3.55,16.31-20.27,36.26-31.64,58.39-39.62-14,.07-27.5,2.5-43,6.76,12-19.57,25.35-34.88,42.37-47.43C939,677.76,928.39,683,918,689c-1.35.78-2.14,3.52-4.28,1.43-1.91-1.87.08-3.51.61-5,8.25-22.5,19.47-43.07,36.59-61.4-13,1.66-23,7.45-34.14,13.61,4-17,6.44-33.27,10.85-49.09,7.71-27.63,17.45-54.13,35.49-76.19,5.71-7,11.51-14,19.7-18.07,3.13-1.55,5.28-1.49,8.74.73,34.41,22.13,48.27,57.12,53.6,97.17A320.64,320.64,0,0,1,1042.13,696.63Z" transform="translate(0 -3.33)"/><path class="cls-1" d="M157.48,913.46c-17.75-40.28-15.28-95.67,39.58-125.13,32.63-17.53,66.82-31.41,99.18-49.54,20.74-11.62,41.56-23,62.13-35,17.31-10.08,27.62-25.29,33.13-44.92.57-2,1.47-3.93,2.21-5.9,2.34-1.91,1.51-4.69,1.74-7.18l.42-2.74c3.08-.74,1.72-3.85,2.7-5.58,2.11-3.72.88-10.43,7.53-10.4.06,3.35-2.32,7.09,1.38,9.85,8,6,14.21-1.54,21.18-3.27q19.17-2,38.36-4c2.62-.28,4.87.78,7.17,1.9,9.61,4.71,19.29,9.23,28.85,14a26.08,26.08,0,0,1,7.5,5.33,13.4,13.4,0,0,1,2.06,14.37c-1.93,4.29-6.47.6-9.5-.31a124,124,0,0,1-18.41-7.27c-7.34-3.58-14.73-5.54-22.73-3.64-6.89,1.64-14,1.6-21.14,3.77,10.13,3.79,20.26,7.56,30.37,11.38,8.07,3.06,16,6.45,24.2,9.19,6.39,2.15,7.64,6.95,5.74,12.53s-8.09,4.77-11.05,3.23c-8.28-4.33-17.57-2.51-25.71-6.13a53.41,53.41,0,0,0-19.52-4.59c-1.35-.07-3.38-.88-3.93,1.14-.7,2.56,1.59,2.93,3.16,3.61,13.94,6.09,28.34,10.7,42.64,15.67,5.5,1.91,13.6,3,11.26,11.86-2.19,8.33-9.47,3.55-14.31,2.92-12.48-1.64-24.84-4.3-37.29-6.29-1.69-.27-4.65-3-5.39,1.32-.53,3.06.78,4.87,3.8,5.81,10.63,3.32,21.19,6.91,31.76,10.43,2.64.88,5.27,1.83,7.85,2.91a7.36,7.36,0,0,1,4.89,8.12c-.51,4.9-4.45,3.69-7.09,3.81-13.16.6-26.18-1.1-39-4-3.77-.84-6.88-.84-9.22,2.83-19.49,3.37-39.6,4.15-57.17,15.52-1.27.82-3.18,2.36-3.65.15-1.78-8.23-5.48-2.29-7.24-.82-11.88,9.9-23.64,20-35.11,30.39-21.19,19.26-42,39-63.28,58.14-14.21,12.76-28.4,25.58-43.88,36.63C203.35,898.14,181.91,909.57,157.48,913.46Z" transform="translate(0 -3.33)"/><path class="cls-1" d="M650.73,744.76c-2.68-3-5.83-3.4-9.59-2.74-13.2,2.33-26.43,4.56-39.88,3.78-3.3-.2-7.73.94-8.53-4.22s3.14-7.1,6.67-8.25c12.26-4,24.64-7.58,37-11.35,1.69-.51,3.34-1.17,5-1.76,2.38-.85,2.88-2.83,2.58-5.16-.45-3.65-2.93-2.07-4.65-1.79-14.46,2.31-28.89,4.79-43.35,7.05-4.11.64-9.39,2.3-10.44-4.2-.93-5.71,3.14-8.59,7.85-10.13,15.56-5.09,31.28-9.7,46.34-16.41,1.76-.78,4.68-1,4.08-3.76-.63-3-3.45-1.47-5.18-1.28-15.59,1.66-30.57,6.72-46,9.56-3.71.68-8.7,4.2-10.59-2.83s1.06-11.14,7.29-13c18.63-5.55,36.1-15,55.27-18.76.36-.07.61-.75,1.42-1.79-19.18-2.06-37.92-7.06-55.81,4.33a41.93,41.93,0,0,1-11.18,4.75c-2.88.81-7.35,5-8.66-1-1.19-5.35-3-12.51,3.36-15.91,12.13-6.45,24.58-12.2,37-18,3.56-1.68,7.63-1.3,11.2-.41,11.29,2.8,23-.09,34.21,3.45,2.8,5.25,8.51,1.07,12.14,4.38,3.37,3.08,5.92.79,7.58-2.77,1.72-3.72,1.49-7.74,1.4-11.72l0,0,3-.17.18.14c.12,3.63,2.56,3.22,4.81,3.12,3.41,9.74,3.57,20.21,6.3,30.19,6,21.82,17.27,38,36.5,48.77,28.49,16,56.9,32,86,46.76,29.26,14.84,59.89,26.84,87.13,46.13,43.6,30.87,43.38,83.24,26.26,116.32a11.15,11.15,0,0,0-6.42-3.58c-17.8-4.06-34.63-10.32-50.07-21.33a548.09,548.09,0,0,1-46.38-37.28c-29.34-26.13-58.26-52.8-87.79-78.68-7.61-6.66-14.87-14.34-24.61-17.85l-.74-.24.54.46c-.07,6.55-2.77,4.39-6.1,2.4C688.82,749.65,669.55,748.09,650.73,744.76Z" transform="translate(0 -3.33)"/><path class="cls-1" d="M1017.89,837.43c-4.32-11.92-9.39-23.38-17-33.41-20-26.26-46.36-39.91-77.32-44.33-9.41-1.34-18.86-2.26-29.75-3.55,16.31-20.27,36.26-31.64,58.39-39.62-14,.07-27.5,2.5-43,6.76,12-19.57,25.35-34.88,42.37-47.43C939,677.76,928.39,683,918,689c-1.35.78-2.14,3.52-4.28,1.43-1.91-1.87.08-3.51.61-5,8.25-22.5,19.47-43.07,36.59-61.4-13,1.66-23,7.45-34.14,13.61,4-17,6.44-33.27,10.85-49.09,7.71-27.63,17.45-54.13,35.49-76.19,5.71-7,11.51-14,19.7-18.07,3.13-1.55,5.28-1.49,8.74.73,34.41,22.13,48.27,57.12,53.6,97.17a320.64,320.64,0,0,1-3,104.43c-.25,1.29-.75,2.51-1.62,5.33-6.08-24.06-17-43.56-33.61-62.06,10.71,44.68,15.85,88.24,17.17,134.19a101.3,101.3,0,0,0-49.74-27.55A147.61,147.61,0,0,1,1010,781.66c8,11.18,14.37,23.12,14.29,37.8-2.4,4.66,1.1,8.57,1.39,12.89.21,3.11,1.46,6.88-1.81,8.75C1020.74,842.86,1020.37,837.83,1017.89,837.43Z" transform="translate(0 -3.33)"/><path class="cls-1" d="M424.58,510.75c-8.85-25.74-19-49.29-26.69-74.36,9.87-.62,18.47,3.77,27.55,5.08,15.94,2.3,31.63,6.51,47.47,9.69,5.33,1.07,7.46,2.35,5,9.11-7.94,21.52-15,43.38-22.4,65.14a13.8,13.8,0,0,1-6.17,7.82C433.25,542.75,424.44,558,420,576.38c-.9,3.72-2.72,5.84-5.41,8.14C404.12,593.45,394,602.76,383.78,612c-3.88,3.49-5.31,8.36-6.57,13.36-1.29,5.15-1.44,10.64-4.26,15.34-.78,1.3.5,4.39-2.47,3.6-1.31-.34-2.15-1.93-2.36-3.78-2.49-21.49-8.62-42.13-13.43-63.07-.87-3.8-1.08-6.78,1.35-10.28,3.49-5,5.7-11.12,4.46-17.49-1.33-6.76.88-11.54,4.75-16.66,7.28-9.64,13.93-19.81,20.64-29.92,2.61-3.92,5.05-4.68,9.49-2.8C404.44,504.1,413.87,507,424.58,510.75Z" transform="translate(0 -3.33)"/><path class="cls-3" d="M650.73,743.69c18.82,3.33,38.09,4.89,55.23,15.12,3.33,2,6,4.15,6.1-2.4l.21-.22c9.73,3.52,17,11.19,24.6,17.85,29.53,25.88,58.45,52.55,87.79,78.68A548.09,548.09,0,0,0,871,890c15.44,11,32.27,17.27,50.07,21.33a11.15,11.15,0,0,1,6.42,3.58c-4.72,14.41-5.62,14.35-18.7,13.57-31-1.86-55.09-18.27-77.48-39.49-39.26-37.23-77-76.1-112.49-117.4-6.46-7.53-13.1-6.09-20.74-6.42C680,764.36,661.91,762.41,650.73,743.69Z" transform="translate(0 -3.33)"/><path class="cls-3" d="M157.48,913.46c24.43-3.89,45.87-15.32,66.13-29.8,15.48-11,29.67-23.87,43.88-36.63,21.3-19.12,42.09-38.88,63.28-58.14,11.47-10.42,23.23-20.49,35.11-30.39,1.76-1.47,5.46-7.41,7.24.82.47,2.21,2.38.67,3.65-.15,17.57-11.37,37.68-12.15,57.17-15.52-3.28,8-9.48,12.65-16.89,15.06-13.21,4.3-26.43,9.46-40.66,5.51-3.65-1-5.65,1.83-7.69,4-12.56,13.64-24.81,27.6-37.54,41-30.9,32.64-59.92,67.43-95,95.34A109.63,109.63,0,0,1,170.1,929c-4.17.14-6.72-1.38-8.32-5.3C160.38,920.29,158.91,916.88,157.48,913.46Z" transform="translate(0 -3.33)"/><path class="cls-1" d="M115.46,839.68c-18.31,24.59-20.44,52.58-15,82-19-14.69-24.17-50.11-12-83C102,802,131.61,780.52,163.26,784.46c.12,1.91-1.33,2.77-2.4,3.74-26.33,23.68-35.32,54.84-33.26,90.23,1.45,24.84,7.48,48.25,23.65,67.41,1.41,1.68,2.88,3.88.91,5.52s-4.33.53-6.13-1.24c-15.67-15.46-28.18-33-30.93-56.42C113,875.74,112.33,857.74,115.46,839.68Z" transform="translate(0 -3.33)"/><path class="cls-1" d="M986.29,920.43c5.33-30.88.23-58.58-17.7-83,3.93,22.18,4.5,44.26-.29,66.26-5.14,23.62-18.69,39.68-39.58,49.06,22.75-23.67,29.76-53.71,29.54-86-.22-33.21-12.16-61.17-38.13-81.92,25.79-6.23,58.15,13.78,72.74,43.93C1008.72,861.55,1006.13,901.53,986.29,920.43Z" transform="translate(0 -3.33)"/><path class="cls-1" d="M492.51,547.62c-11.27-5.87-15.22-2.07-14.83,9.55.08,2.53-2.74,6.08-5.1,7.62-10.56,6.9-13.31,18.65-16.3,29.86-2,7.37-5.66,14.42-5.19,22.43.16,2.83-1.47,2.73-3.33,3-15.09,2.17-16.18,1.43-12.5-13.92,3.52-14.69,4.37-30.48,14-43,3.24-4.22,6.52-8.6,11.07-10.79,7.2-3.46,10.29-9.73,12.6-17,9-28.46,20-56.18,27.51-85.21.46-1.74,1.38-5.31,4.55-2.82,2.42,1.9,8.43-.09,6.09,7.15-4.76,14.7-9,29.6-13.38,44.41-3.36,11.25-6.33,22.64-10.19,33.69C485.32,538.85,489.61,541.84,492.51,547.62Z" transform="translate(0 -3.33)"/><path class="cls-1" d="M568.34,584.56c.93-8.93,2.41-16.15,5.83-22.42,3.21-5.86,3.56-11.62,2.24-17.82-3.62-17-7.69-33.8-11.86-50.63-3.09-12.52-5.77-25.3-8.22-38.06-.43-2.28-.88-4.6,2.11-4.77,3.33-.18,6.8-1.2,8.15,4.38,4.14,17.12,8.76,34.11,13.31,51.11,3.15,11.77,5.41,23.74,10.06,35.15,1.9,4.67.17,12.09-1.93,17.35-7,17.47-3.14,34.14,1.55,51,3.11,11.21,2.93,11.16-7.37,14.71-2.71.94-4.31.72-5.05-2.48C574.13,609.09,571.05,596.08,568.34,584.56Z" transform="translate(0 -3.33)"/><path class="cls-3" d="M836.37,733.42c3-24.67,13-46.22,25.66-66.68a32.28,32.28,0,0,1,17.59-14c-4.34,28.93-8.9,57.83-12.84,86.82-.89,6.52-3,6.52-7.63,4.5C851.47,740.71,843.64,737.75,836.37,733.42Z" transform="translate(0 -3.33)"/><path class="cls-3" d="M766.77,370.87c1.45-6.68,7.43,2.46,9.13-4-6.65,33.79-14.3,66.34-26.84,97.33-.88,2.18-1.39,4.54-2.07,6.81-11-22-12.84-45.94-13.81-70.16-.15-3.74,1.82-4.24,4.26-5.32,11.29-5,22.41-10.38,31.54-19.35,1.12-1.09,3.59-2.19,2-4.35C770.27,370.93,768.21,371.16,766.77,370.87Z" transform="translate(0 -3.33)"/><path class="cls-3" d="M207.5,654.4c8,1,10.57,9.11,15.37,14,11.94,12.21,15.73,29.52,22.65,44.9,2.75,6.12.94,14.08,7,18.67-9.24,4.07-18.52,8.06-27.72,12.25-3.38,1.54-4.64,1.12-5.23-3.23-2.73-20-6-39.91-8.77-59.91C209.53,672.22,206.78,663.55,207.5,654.4Z" transform="translate(0 -3.33)"/><path class="cls-3" d="M339.19,468.14c-12.31-26.31-18.93-54.62-25.77-82.86-.74-3.09-1.3-6.32-2.62-9.13-1.45-3.12-1.19-5,1.87-6.3,2.38,6.69,8.12,9.89,13.08,13.65a91.06,91.06,0,0,0,15.14,8.93c12.39,6,12.5,5.9,11.7,20.69C351.54,432.39,349,451.29,339.19,468.14Z" transform="translate(0 -3.33)"/><path class="cls-3" d="M264.39,527.85c-.4-.18-.89-.6-1.18-.48s-.37.78-.54,1.2c.4.18.88.6,1.17.48S264.21,528.27,264.39,527.85Z" transform="translate(0 -3.33)"/><path class="cls-3" d="M841,419.23a8.71,8.71,0,0,0,.77-8.41c-9.95-21.91-15.76-45.67-26.34-67.3-1-1.95-1.41-4.35-3.85-4.21-2.94.18-1.05,2.87-1.62,4.29-1.22,3-3.87,1.82-5.92,1.51a2.68,2.68,0,0,1-1.88-4.25c4.13-5.52,1.8-11.87,2.56-17.8,6.46,9.14,14.64,12.36,25,8.5,3-1.13,4.79-.59,5.73,3.56,4.11,18.21,8.38,36.39,15,53.8a10.53,10.53,0,0,1-.4,9.13C846.75,404.92,844,412.15,841,419.23Z" transform="translate(0 -3.33)"/><path class="cls-3" d="M272.43,332.1c-1.62,12.41-8.49,22.74-12,34.42-5.28,17.77-14.63,34.06-16.85,52.94-2.05-1.46-.55-4.13-1.8-5.88-9.72-13.6-7.37-27.28-1.81-42.09,4.35-11.57,6.27-24.23,8.78-36.52.86-4.25,2.76-4.55,5.77-3.6A32.72,32.72,0,0,0,272.43,332.1Z" transform="translate(0 -3.33)"/><path class="cls-1" d="M671.61,795.73c-16.49,13.31-34.79,15.21-53.49,15.54-2.81.05-3.84-1.88-4.58-4.42-2.82-9.63-5.95-19.17-8.55-28.86-.83-3.09-.52-7.06,4-6.67,3.62.31,8.59-6.72,10.85,2.2,1.91,7.51,4.74,14.78,6.3,22.36,1.51,7.33,5.11,8.92,11.36,7.17,9-2.5,18.07-4.54,27-7.12A11.17,11.17,0,0,1,671.61,795.73Z" transform="translate(0 -3.33)"/><path class="cls-3" d="M782.57,226.75c-1.84-.18-2.06,1-2,1.93s.51,2.2,1.09,2.41c1.3.49,1.53-.92,1.54-1.87A9.42,9.42,0,0,0,782.57,226.75Z" transform="translate(0 -3.33)"/><path class="cls-1" d="M464.41,809.13c-6.56,3-12.28.85-17.83.37-14.34-1.24-27.14-7.65-39.72-14.53-1.64-.9-4.15-2-3.38-4.51.6-2,3-1.48,4.73-1.66,3-.32,6-.4,9-.83,3.54-.52,6.21-1,6.48,4.62.18,3.85,4.53,4.75,7.47,5.85C441.77,802.4,452.27,806.7,464.41,809.13Z" transform="translate(0 -3.33)"/><path class="cls-1" d="M646.72,620.05c-4.77-4-5.58-9.9-7.17-15.3-4.25-14.48-6.48-30-18.33-40.49-.9-.8-1.47-1.74-.67-2.59,1.35-1.44,2.84-.69,3.91.57,3.89,4.55,9,8.26,11.26,14A178.41,178.41,0,0,1,646.72,620.05Z" transform="translate(0 -3.33)"/><path class="cls-1" d="M514.15,434.45c-2.07-.92-7-.2-5.5-4.7,1.79-5.35,1.15-13,7.7-15,2-.64,6.7.36,6.09,5.84C521.41,429.68,518.74,434.76,514.15,434.45Z" transform="translate(0 -3.33)"/><path class="cls-1" d="M549,422.61c1.09-2.62,1.23-6.23,5.42-6,3.25.15,8.2,8.78,8,14.48-.16,5.17-4.53,4.2-7.18,4.74C551.58,436.55,548.89,430.54,549,422.61Z" transform="translate(0 -3.33)"/><path class="cls-3" d="M680.35,623.48l-3,.17c-.54-.52-.83-2-1.88-.57l1.84.62c.09,4,.32,8-1.4,11.72-1.66,3.56-4.21,5.85-7.58,2.77-3.63-3.31-9.34.87-12.14-4.38,3.68.51,7.35,1,11,1.53,2.37.31,5.31,1.92,6.72-1.12,1.35-2.88.75-6.14-.7-9.17-2.28-4.74-6.84-8.33-6.44-14.43l-.07.11Z" transform="translate(0 -3.33)"/><path class="cls-3" d="M1017.89,837.43c2.48.4,2.85,5.43,5.93,3.67,3.27-1.87,2-5.64,1.81-8.75-.29-4.32-3.79-8.23-1.39-12.89,5.61,10.78,2.15,21.95,1.14,33-.21,2.33-1.14,4.59-2.24,8.76C1021.14,852.14,1019.52,844.79,1017.89,837.43Z" transform="translate(0 -3.33)"/><path class="cls-3" d="M406.1,627.07c-6.65,0-5.42,6.68-7.53,10.4-1,1.73.38,4.84-2.7,5.58-2.06-16.44,9.49-23.81,19-32.52l-.11-.16c1,6.85-4.26,10.28-7.2,15l-1-1.73-.46,3.46Z" transform="translate(0 -3.33)"/><path class="cls-3" d="M307.76,138c11.86-2.14,23.23,1.94,34.88,2.75" transform="translate(0 -3.33)"/><path class="cls-3" d="M316.52,697.65c-4.64-7.73,2.05-9.35,5.92-12.48C322.78,690.58,323.91,696.41,316.52,697.65Z" transform="translate(0 -3.33)"/><path class="cls-3" d="M716.61,637.61c-.81-9.53,3.88-18.3,3.42-27.81-.07-1.5,1.44-2,2.74-2.24A204,204,0,0,1,716.61,637.61Z" transform="translate(0 -3.33)"/><path class="cls-3" d="M428.66,633.65c-7,1.73-13.15,9.31-21.18,3.27C414.59,636.19,421.42,633.44,428.66,633.65Z" transform="translate(0 -3.33)"/><path class="cls-3" d="M295.37,709.31c3-6.43,9.15-6.41,14.52-8A43.5,43.5,0,0,1,295.37,709.31Z" transform="translate(0 -3.33)"/><path class="cls-4" d="M592.42,824.21c.2.73.42,1.41.65,2.07-1.14-5.07-1.16-10.45-3.59-15.18,0,1.17,0,2.35,0,3.53C590.61,817.7,591.5,820.91,592.42,824.21Z" transform="translate(0 -3.33)"/><path class="cls-3" d="M398.66,271.32c-1.58,2.12-4.11,2.11-6.17,3.14l-3.2-.2h0" transform="translate(0 -3.33)"/><path class="cls-3" d="M686.58,271.14c2.35,1,8.16-3.23,6.08,4.54C691.83,272.34,688.1,273.44,686.58,271.14Z" transform="translate(0 -3.33)"/><path class="cls-3" d="M313.4,369.79c2.44-2.22,4.66-3.08,6.08,1.1C317.4,370.83,315.07,372.39,313.4,369.79Z" transform="translate(0 -3.33)"/><path class="cls-3" d="M395.45,645.79c-.23,2.49.6,5.27-1.74,7.18C393.7,650.42,393.93,647.93,395.45,645.79Z" transform="translate(0 -3.33)"/><path class="cls-3" d="M685.34,626.74c-2.25.1-4.69.51-4.81-3.12A7.41,7.41,0,0,1,685.34,626.74Z" transform="translate(0 -3.33)"/><path class="cls-3" d="M134.73,715.6l-3,.41" transform="translate(0 -3.33)"/><path class="cls-4" d="M98.4,750.6c.14-1.2-.31-2.86,1.3-3.11,1.12-.18,1.36,1.1,1.51,2.11Z" transform="translate(0 -3.33)"/><path class="cls-3" d="M698.57,610.78c3.83-1.81,2.82,1.18,2.8,3.2A4.83,4.83,0,0,1,698.57,610.78Z" transform="translate(0 -3.33)"/><path class="cls-3" d="M145.09,716.18c1.68-.43,3.31-.53,4.65,1C148.09,717.36,146.41,717.8,145.09,716.18Z" transform="translate(0 -3.33)"/><path class="cls-4" d="M406.1,627.08c.16-1.16.31-2.31.46-3.46l1,1.73C407.09,625.92,406.6,626.5,406.1,627.08Z" transform="translate(0 -3.33)"/><path class="cls-3" d="M65.3,715.84c-.14-1.73-.6-3.53,1-4.86" transform="translate(0 -3.33)"/><path class="cls-3" d="M170.6,737a2.57,2.57,0,0,1-2.5-1.74Z" transform="translate(0 -3.33)"/><path class="cls-3" d="M210.58,465.12c1.27,1.15,1.34,2.64,1.08,4.23C210.09,468.29,210.45,466.67,210.58,465.12Z" transform="translate(0 -3.33)"/><path class="cls-3" d="M293.72,297.05c-.72,1.41-1.57,1.91-2.71.47Z" transform="translate(0 -3.33)"/><path class="cls-3" d="M788.15,293.55l-1.87-2Z" transform="translate(0 -3.33)"/><path class="cls-3" d="M285.37,180.8c.36,0,.52.15.49.53,0,0-.48,0-.48,0Z" transform="translate(0 -3.33)"/><path class="cls-3" d="M692.32,276.24l-1.19,1Z" transform="translate(0 -3.33)"/><path class="cls-3" d="M107.1,749.68q-.73.77-1.47,1.5Z" transform="translate(0 -3.33)"/><path class="cls-3" d="M414.9,610.53l1-.66c0,1.06-.44,1-1.08.51Z" transform="translate(0 -3.33)"/><path class="cls-3" d="M666.77,610.62h-1c.1-.31.2-.62.29-.94l.63,1.06Z" transform="translate(0 -3.33)"/><path class="cls-3" d="M293.84,710.4l1.32-.93C295.11,710.41,294.63,710.66,293.84,710.4Z" transform="translate(0 -3.33)"/><path class="cls-3" d="M286.12,172.73a1.44,1.44,0,0,1-1,1.07Z" transform="translate(0 -3.33)"/><path class="cls-3" d="M286.3,128.75l-.95.67,0-.64,1.06.09Z" transform="translate(0 -3.33)"/><path class="cls-3" d="M401.54,270.28a.94.94,0,0,1,1-.71l-.27.67Z" transform="translate(0 -3.33)"/><path class="cls-4" d="M166.44,635l.91.44-.79.54-.06-1Z" transform="translate(0 -3.33)"/><path class="cls-3" d="M159.91,701.15c-.32-.4-.65-.79-1-1.18Z" transform="translate(0 -3.33)"/><path class="cls-3" d="M287.75,127.08l-1.45,1.67.15.12c-1-1.2-.08-1.89.6-2.64C287.29,126.5,287.53,126.78,287.75,127.08Z" transform="translate(0 -3.33)"/><path class="cls-3" d="M791.13,193.52l1.23-1.73C792.43,192.76,792.07,193.37,791.13,193.52Z" transform="translate(0 -3.33)"/><path class="cls-3" d="M832.22,732.07a.92.92,0,0,1,.91.42l-.61.22Z" transform="translate(0 -3.33)"/><path class="cls-3" d="M712.06,756.41l-.54-.46.74.24Z" transform="translate(0 -3.33)"/><path class="cls-3" d="M218.54,504.86c.11,2-1,2.18-1.87,2.09s-2-.58-2.23-1.19c-.42-1.39.9-1.6,1.79-1.59A8.07,8.07,0,0,1,218.54,504.86Z" transform="translate(0 -3.33)"/><path class="cls-5" d="M368.47,193.79c2.38,1.87,7.14.13,6.87,6.17-.19,4.32-1,7.49-5,8.64-16.86,4.87-33.46,10.4-49,22,4.6-15.64,11.08-27.3,26-30.6a2,2,0,0,0,2-2.18l.14.12.87,1.09c1.13.83,2,.59,2.67-.71l.1,0c5.17-1.28,11-.21,15.33-4.56Z" transform="translate(0 -3.33)"/><path class="cls-5" d="M257.81,306.15c-7.17-4.9-12.75-11.21-15.9-19.81-1.73-4.72-1.64-8.75,2.29-12.35s7.45-2.64,11.1-.19c2.54,1.72,4.89,3.78,7.27,5.75s3.19,4.38.69,6.76c-4,3.86-2,7,.66,10.28,2.41,3,6,5.19,5.69,10l-.13.14c-3.53,1.76-7,.16-10.53-.11l-.49-.44Z" transform="translate(0 -3.33)"/><path class="cls-5" d="M338.12,241.38c6.31-16.7,24.94-24.06,38.19-15.1l-1.94,1c-4-2-4.75.49-4.92,4-.25,5-.53,10.09-4.62,13.66-1.66-.07-3.38.69-4.74-1.28C353.59,234.29,346.18,234,338.12,241.38Z" transform="translate(0 -3.33)"/><path class="cls-3" d="M322.6,241.9h0c1.81.16,3.84-.43,5.82,1.89" transform="translate(0 -3.33)"/><path class="cls-3" d="M387.09,275.75c.18-1.31,1.27-1.31,2.2-1.49h0" transform="translate(0 -3.33)"/><path class="cls-3" d="M353,198.35c-.65,1.3-1.54,1.54-2.67.71Z" transform="translate(0 -3.33)"/><path class="cls-3" d="M111.92,756.49a8.71,8.71,0,0,1,.76,2.22,1.55,1.55,0,0,1-.84,1.09c-1,.44-1.31-.4-1.19-1.16C110.74,758.05,111.28,757.53,111.92,756.49Z" transform="translate(0 -3.33)"/><path class="cls-3" d="M137.65,711l-.31.6c.1-.2.21-.4.32-.6Z" transform="translate(0 -3.33)"/><path class="cls-5" d="M725.81,196.54c4.83,1.51,9.63,3.11,14.47,4.52,13.83,4,21,13,23.16,29.75-14.26-11.62-30.3-17.57-46.77-22.51-2.48-.74-5.4-1.18-6.07-5.06-1.4-8.12,1.14-10.61,8.59-8.07,1.19.41,2.43.62,3.64.91Z" transform="translate(0 -3.33)"/><path class="cls-5" d="M815.5,305.32c1.83-2.88,3.56-5.83,5.52-8.61,1.6-2.26,3.28-5.32,1.92-7.36-4.65-7,.56-10,4.12-13.8,3-3.25,6.41-5.44,10.79-3.91,4.79,1.68,5.63,6.87,6.29,10.89,2,12.33-17.24,28.18-28.49,23.89A.94.94,0,0,0,815.5,305.32Z" transform="translate(0 -3.33)"/><path class="cls-5" d="M721.16,244.86a13,13,0,0,1-4.72-11.2c.21-4.07-1.16-7.42-6.33-7,11.07-9.14,27.63-3.14,37.35,14.37-8.75-5.36-16.41-8.36-21.71,2.33Z" transform="translate(0 -3.33)"/><path class="cls-3" d="M793.27,312.06c1-2.86,3.33-1.89,4.58-3.12,1.59-1.54,4-3.87,5.28-1" transform="translate(0 -3.33)"/><path class="cls-3" d="M778.44,207.05c-.21-.45-.78-1.11-.7-1.66s.83-1,1.28-1.44c.36.58.93,1.12,1,1.74C780.15,206.52,779.65,207.14,778.44,207.05Z" transform="translate(0 -3.33)"/><path class="cls-4" d="M412.93,260.13c-.41.17-.92.57-1.19.43s-.35-.8-.5-1.23c.4-.17.9-.57,1.18-.43S412.77,259.69,412.93,260.13Z" transform="translate(0 -3.33)"/><path class="cls-4" d="M726.74,218c-4,2.18-8,1.21-13.8.42" transform="translate(0 -3.33)"/><path class="cls-4" d="M751.58,238.67c-.63-1-1.89-2.17-1.75-3,.23-1.42,2-2.07,2.87-.93,1.55,2.17,4.38.28,5.86,2.46-2,2.57-4.69,1.11-7,1.53Z" transform="translate(0 -3.33)"/><path class="cls-4" d="M707.62,186.9l.33-.62-.31.64Z" transform="translate(0 -3.33)"/><path class="cls-4" d="M751.59,238.68c-.11.21-.22.41-.32.62.1-.21.2-.42.31-.63Z" transform="translate(0 -3.33)"/><path class="cls-4" d="M264.39,527.85c-.18.42-.26,1.08-.55,1.2s-.77-.3-1.17-.48c.17-.42.26-1.08.54-1.2S264,527.67,264.39,527.85Z" transform="translate(0 -3.33)"/><path class="cls-4" d="M677.28,623.7l-1.84-.62c1-1.39,1.34,0,1.88.57Z" transform="translate(0 -3.33)"/><path class="cls-5" d="M212.42,952.63,376.6,799.45Z" transform="translate(0 -3.33)"/><line class="cls-5" x1="212.42" y1="949.3" x2="376.6" y2="796.12"/></svg>